<svg xmlns="http://www.w3.org/2000/svg" width="29.58mm" height="29.58mm" viewBox="0 0 83.86 83.86">
  <defs>
    <style>
      .a {
        fill: #fff;
      }
    </style>
  </defs>
  <title>atol</title>
  <g>
    <path class="a" d="M58.26,47.7a17.36,17.36,0,0,1-14.42-9.65C37.23,24.88,51,17.8,51,17.8L63.19,20Z"/>
    <path class="a" d="M.64,34.65A41.93,41.93,0,1,0,49.21.64,42,42,0,0,0,.64,34.65Zm34.48,45.9A39.22,39.22,0,1,1,80.56,48.74h0A39.26,39.26,0,0,1,35.12,80.55Zm48.1-31.34Z"/>
    <g>
      <path class="a" d="M6,51c-.06-.32-.11-.64-.19-.95s-.21-.61-.32-.91L14,46.78l.83,3.06c.47,1.72,0,2.84-1.37,3.23-2.21.6-3.12-.89-3.73-3.12Zm4.42-1.21a5.52,5.52,0,0,0,.31.8,1.64,1.64,0,0,0,2,.64c1-.27,1.51-1,1.34-1.6l-.21-.77Z"/>
      <path class="a" d="M16.07,53.65,17.46,56a5.24,5.24,0,0,1,.83,1.93,1.93,1.93,0,0,1-1,1.9,2.29,2.29,0,0,1-3-.56c-.71,1.24-1.33,2.52-2,3.79l-.43.84c-.18-.34-.34-.7-.54-1s-.42-.65-.64-1l1.55-2.69c.21-.34.53-1,.81-1.44l0-.08L9.43,59.78c-.14-.29-.27-.58-.43-.86s-.36-.54-.54-.8Zm-2.6,3.76a1.63,1.63,0,0,0,2.61.81,2.8,2.8,0,0,0,.52-.38c.82-.72.24-1.5-.15-2.17Z"/>
      <path class="a" d="M17.32,69.87c-2.14-1.87-2.48-4.4-.56-6.59,1.69-1.93,4.46-2.26,6.87-.15,2.76,2.42,1.87,5.08.56,6.58C22.55,71.61,19.69,72,17.32,69.87Zm.8-4.9c-1.1,1.25-1.7,3.09-.25,4.36s3.47.4,4.88-1.21c1.09-1.24,1.76-3.19.31-4.46S20,62.8,18.12,65Z"/>
      <path class="a" d="M28.11,76.34c-.29-.15-.57-.31-.87-.44s-.6-.22-.91-.33l3.15-7.26a19.54,19.54,0,0,0-2.27-.79,4.33,4.33,0,0,0,.28-.48,4,4,0,0,0,.15-.52l6.08,2.63c-.09.16-.2.31-.27.47a3.68,3.68,0,0,0-.16.54,18,18,0,0,0-2-1.08Z"/>
      <path class="a" d="M39.87,70.22a3.24,3.24,0,0,0-.16.53,5.25,5.25,0,0,0,0,.56,19.09,19.09,0,0,0-2.9-.68l-.46,2.73,1.32.23a13.71,13.71,0,0,0,1.58.15,3.24,3.24,0,0,0-.16.53,5.25,5.25,0,0,0,0,.56,11.19,11.19,0,0,0-1.54-.38l-1.32-.23-.55,3.23a25.35,25.35,0,0,0,3,.32,3.24,3.24,0,0,0-.16.53,5.25,5.25,0,0,0,0,.56L33.57,78,35,69.4Z"/>
      <path class="a" d="M49.08,77l-.18,1.13a5.58,5.58,0,0,1-2.48.8c-2.74.26-5-1.23-5.23-3.85C40.86,71.72,43,70,45.81,69.7a5.83,5.83,0,0,1,2.68.37c-.08.45-.11.89-.17,1.35l-.18,0a2.69,2.69,0,0,0-2.24-1c-2.13.21-2.79,2.33-2.61,4.21.22,2.19,1.44,3.63,3.41,3.44a3.59,3.59,0,0,0,2.2-1.19Z"/>
      <path class="a" d="M56.37,76.08c-.31.1-.62.18-.92.29s-.58.28-.87.42l-2.89-7.37a16.47,16.47,0,0,0-2.17,1,3.58,3.58,0,0,0-.14-.54,3.77,3.77,0,0,0-.26-.48L55.29,67a3.18,3.18,0,0,0,.14.53,3.8,3.8,0,0,0,.26.49,18.11,18.11,0,0,0-2.21.68Z"/>
      <path class="a" d="M60.4,63.45a3.84,3.84,0,0,0,.27.49,4.83,4.83,0,0,0,.37.42,19.13,19.13,0,0,0-2.53,1.56l1.59,2.26,1.1-.77a12.12,12.12,0,0,0,1.22-1,5.46,5.46,0,0,0,.27.48,3.7,3.7,0,0,0,.37.42,10.23,10.23,0,0,0-1.36.82l-1.09.77,1.88,2.67a24.35,24.35,0,0,0,2.33-1.86,4.59,4.59,0,0,0,.26.49,4.89,4.89,0,0,0,.37.41l-4,2.83L56.4,66.28Z"/>
      <path class="a" d="M64.41,59a3.79,3.79,0,0,1,5.65-.49,4.43,4.43,0,0,1,.73,6.55l-2.24,2.82-6.87-5.43ZM69.17,66l.67-.86c1.1-1.39,1.25-3-1.12-4.87-1.89-1.5-3.35-1.2-4.48.23l-.78,1Z"/>
    </g>
    <polygon class="a" points="28.19 50.89 30.21 51.27 29.5 49.51 28.19 50.89"/>
    <path class="a" d="M42.87,54.09a1.18,1.18,0,0,1-.41-1.17,1.2,1.2,0,0,1,.78-1,3.06,3.06,0,0,1,1.68-.09,3,3,0,0,1,1.53.66,1.28,1.28,0,0,1-.38,2.13,3.67,3.67,0,0,1-3.2-.57Z"/>
    <path class="a" d="M38.87,42.67c8,8.39,19,7,19,7L55.65,62.39l-34-6L29.11,14l6.7,1.19C30.76,24.29,30.82,34.27,38.87,42.67ZM33.75,50l2.44.44-.6,3.36,1.7.31.6-3.37,2.43.43.13-.72-6.57-1.17ZM55.18,57.3l.13-.74-4-.71.59-3.36-1.69-.3-.73,4.09ZM27.57,51.54l3,.54L31,53l1.81.33-2.14-4.59-1.88-.36-3.64,3.57,1.76.36Zm16.73,4c.91.09,4.11.52,4.27-1.64.19-2.44-4-2.77-4-2.77s-3-.67-3.78,1.27S43.39,55.46,44.3,55.56Z"/>
  </g>
  <g>
    <path class="a" d="M36.08,4.55l4.27.79-.22,1.2-3.27-.6-.81,2V8a2.15,2.15,0,0,1,1.64-.34,2.56,2.56,0,0,1,2.08,3.23,2.87,2.87,0,0,1-3.41,2.44A2.64,2.64,0,0,1,34,10.27l1.34.25a1.44,1.44,0,0,0,1.27,1.67c1.14.21,1.68-.53,1.87-1.53a1.58,1.58,0,0,0-1.25-2,1.31,1.31,0,0,0-1.48.5l-1.34-.24Z"/>
    <path class="a" d="M42,12a1.16,1.16,0,0,0,1,1.35c1.46.28,2-1.44,2.23-2.51v0a2,2,0,0,1-2,.66A2.58,2.58,0,0,1,41.1,8.23a2.71,2.71,0,0,1,3.36-2.3c2.34.43,2.56,2.45,2.12,4.86-.37,2-1.57,4.13-3.91,3.69a2.43,2.43,0,0,1-2.07-2.71Zm.5-3.56a1.54,1.54,0,0,0,1.11,2A1.57,1.57,0,0,0,45.38,9,1.54,1.54,0,0,0,44.2,7,1.51,1.51,0,0,0,42.45,8.46Z"/>
    <path class="a" d="M47,12.61a2,2,0,0,1,1.88-1.74v0a1.77,1.77,0,0,1-.85-1.92c.26-1.4,1.35-2.08,3-1.78s2.41,1.33,2.15,2.73a1.76,1.76,0,0,1-1.48,1.49v0a2,2,0,0,1,1.13,2.3,2.66,2.66,0,0,1-3.39,2.05A2.66,2.66,0,0,1,47,12.61Zm4.48.83a1.6,1.6,0,0,0-3.14-.58,1.6,1.6,0,0,0,3.14.58Zm-2.19-4.2a1.33,1.33,0,0,0,2.6.48,1.32,1.32,0,0,0-2.6-.48Z"/>
    <path class="a" d="M55.76,8.19,60,9l-.22,1.21-3.27-.61-.81,2,0,0a2.17,2.17,0,0,1,1.63-.34,2.57,2.57,0,0,1,2.08,3.24A2.86,2.86,0,0,1,56.05,17a2.63,2.63,0,0,1-2.42-3.05l1.34.25a1.45,1.45,0,0,0,1.27,1.68c1.14.21,1.68-.53,1.87-1.54a1.57,1.57,0,0,0-1.25-2,1.3,1.3,0,0,0-1.48.51L54,12.55Z"/>
  </g>
</svg>
