<svg xmlns="http://www.w3.org/2000/svg" width="7.79in" height="1.92in" viewBox="0 0 560.99 138.17"><defs><style>.a,.b,.c{fill:#fff}.b{clip-rule:evenodd}.c{fill-rule:evenodd}.d{clip-path:url(#a)}.e{clip-path:url(#b)}.f{clip-path:url(#c)}.g{clip-path:url(#d)}.h{clip-path:url(#e)}.i{clip-path:url(#f)}.j{clip-path:url(#g)}.k{clip-path:url(#h)}.l{clip-path:url(#i)}.m{clip-path:url(#j)}.n{clip-path:url(#k)}.o{clip-path:url(#l)}.p{clip-path:url(#m)}</style><clipPath id="a" transform="translate(8.37)"><path class="a" d="M66 83.49V0s.15.39.67 1.43 6.68 12.74 8.25 20.16 3 11.31 2.88 18.6a72.89 72.89 0 0 1-3.67 22c-2.49 7.54-4.72 13.4-5 16.39s-.26 4.94-.26 4.94z"/></clipPath><clipPath id="b" transform="translate(8.37)"><path class="a" d="M72.15 83.49c.39-4.94 2.59-16.55 6.42-23.93 4.32-8.32 11.88-13.4 21.23-15.48 11.14-2.47 34.59 3.25 32 29.91 0 .29-1.89-3.1-4.46-7.67-3.28-5.85-7.6-12.22-15.59-13.92-9-1.9-18.34.65-23.06 5.85s-9.86 11.19-10.77 25.24z"/></clipPath><clipPath id="c" transform="translate(8.37)"><path class="a" d="M77.92 83.49c-.13-7.93 2.43-14.83 7.78-22.5 5.63-8.06 19.13-12.22 29.61-7.8 4.88 2.06 10.35 6.63 16.59 20.81.05.12-.26.39-1.31-.78S122 64 117 61.64c-5.77-2.73-15.68-1.88-21 1.3-5 3-11.27 9-11.66 20.55z"/></clipPath><clipPath id="d" transform="translate(8.37)"><path class="b" d="M66 91.42v44a2.17 2.17 0 0 1 .54-1c1.15-1.45 11.53-14.17 12.84-16.12 0 0 .52 1-.92-1.3s-8.52-14.43-9-22a22.62 22.62 0 0 1-.13-3.51z"/></clipPath><clipPath id="e" transform="translate(8.37)"><path class="b" d="M72.15 91.42c.79 14.43 9.7 24.06 15.59 26.4 5.7 2.26 17.69 4.81 24.9-9.75a28 28 0 0 1-2.62 3.12c-1.83 2-13.5 8.58-22.41 1-3.79-3.21-9-7.8-10-20.81 0 0-5.51-.13-5.5 0z"/></clipPath><clipPath id="f" transform="translate(8.37)"><path class="b" d="M83.55 91.42c-.66 9.23 4.65 15 7.08 17.81 4.32 4.94 15.72 2.47 17.16 1.82a48.57 48.57 0 0 0 4.81-3 15.88 15.88 0 0 1-2.46 3.19c-1.83 2-13.66 8.52-22.57 1-3.79-3.21-9-7.8-10-20.81z"/></clipPath><clipPath id="g" transform="translate(8.37)"><path class="a" d="M66 83.52V0s-.15.39-.67 1.43-6.68 12.74-8.25 20.16-3 11.31-2.88 18.6a72.87 72.87 0 0 0 3.67 22c2.49 7.54 4.72 13.39 5 16.38s.26 4.94.26 4.94z"/></clipPath><clipPath id="h" transform="translate(8.37)"><path class="a" d="M59.82 83.52C59.43 78.58 57.23 67 53.4 59.6c-4.32-8.32-11.88-13.4-21.23-15.48C21 41.65-2.42 47.37.2 74c0 .29 1.9-3.1 4.45-7.67 3.28-5.85 7.6-12.23 15.59-13.92 9-1.9 18.34.65 23.06 5.85s9.83 11.18 10.75 25.23z"/></clipPath><clipPath id="i" transform="translate(8.37)"><path class="a" d="M54.06 83.52c.13-7.93-2.63-15.23-8-22.89s-18.73-11.7-29.22-7.28C12 55.41 6.88 59.08.07 74c-.05.12.26.39 1.31-.78S10 64.05 15 61.68c5.76-2.73 15.67-1.88 21 1.3 5 3 11.27 9 11.66 20.55z"/></clipPath><clipPath id="j" transform="translate(8.37)"><path class="b" d="M66 91.46v44a2 2 0 0 0-.54-1c-1.18-1.43-11.53-14.17-12.84-16.13 0 0-.52 1 .92-1.3s8.52-14.44 9-22a22.77 22.77 0 0 0 .13-3.51z"/></clipPath><clipPath id="k" transform="translate(8.37)"><path class="b" d="M59.82 91.46c-.79 14.43-9.7 24.06-15.59 26.4-5.7 2.26-17.69 4.81-24.9-9.76a27.9 27.9 0 0 0 2.67 3.12c1.83 2 13.5 8.58 22.41 1 3.79-3.21 9-7.8 10-20.81 0 0 5.51-.13 5.5 0z"/></clipPath><clipPath id="l" transform="translate(8.37)"><path class="b" d="M48.42 91.46c.66 9.23-4.65 15-7.08 17.81-4.32 4.94-15.72 2.47-17.16 1.82a48.93 48.93 0 0 1-4.81-3 29.46 29.46 0 0 1 2.63 3.13c1.66 2.21 13.5 8.58 22.41 1 3.79-3.21 9-7.8 10-20.81z"/></clipPath><clipPath id="m" transform="translate(8.37)"><path class="b" d="M84.38 83.49H46.17c-4.86 0-5.41 8 .26 8H84.9c6.3 0 5.51-8 .53-8z"/></clipPath></defs><title>new-orleans</title><path class="a" d="M130.91 77.3c2 1.57 9 7.08 16.14 12.55 6.56 5 15.46 11.41 16.14 11.85 3.28 2.32 4 2.8 4.51 2.8s.56-.22.56-3.11l.11-25.62c0-2.62.25-3.59 2.29-3.89a7.63 7.63 0 0 1 1.48-.13c.43 0 .68-.13.68-.31s-.43-.31-1.11-.31c-2.54 0-4.58.13-5.26.13s-3.65-.13-6.43-.13c-.74 0-1.24 0-1.24.31s.06.31.49.31a23 23 0 0 1 3 .22c1.92.35 2.35 1.31 2.41 4.15l.69 22.21c-2-1.44-8.72-6.78-14.84-11.41-9.52-7.21-18.74-14.25-19.67-15-.62-.44-1.67-1.4-2.16-1.4s-.68.48-.68 2.19l-.06 25.05c0 4-.31 5.25-1.86 5.55a12.34 12.34 0 0 1-2.54.26c-.31 0-.49.09-.49.26s.37.35 1 .35c2.78 0 5.38-.13 5.94-.13s3 .13 6.56.13c.74 0 1.11-.09 1.11-.35s-.19-.26-.49-.26a19 19 0 0 1-3.09-.26c-1.67-.35-2.29-1.49-2.41-5.07l-.8-20.94zM180.85 91.51a75.28 75.28 0 0 1-.31 9.49c-.25 1.27-.56 2.23-1.79 2.4a13.25 13.25 0 0 1-1.85.18c-.37 0-.5.13-.5.26s.31.35 1 .35c.93 0 2.35 0 3.59-.09s2.35 0 2.47 0c1.79 0 5.94.26 15.27.26 2.41 0 2.91 0 3.34-1.14a31 31 0 0 0 .8-4.24c0-.31 0-.66-.37-.66s-.43.18-.56.66a3.69 3.69 0 0 1-2.78 3.15 24.69 24.69 0 0 1-5.94.48c-6.06 0-7-.57-7.17-3.59-.06-.92 0-6 0-7.48v-3.88c0-.17.12-.31.43-.31 1.05 0 7.17.09 8.84.22 2.41.18 3 .92 3.22 1.53a3.24 3.24 0 0 1 .25 1.44.38.38 0 0 0 .43.39c.43 0 .43-.48.43-.83s.12-1.92.25-2.8c.19-1.44.5-2.19.5-2.45s-.12-.35-.31-.35-.49.22-.93.57-1.42.53-2.91.61-9 .09-9.83.09c-.31 0-.37-.13-.37-.44V73.28c0-.31.12-.44.37-.44.68 0 7.42 0 8.47.13 3.34.26 4 .79 4.39 1.49a3.47 3.47 0 0 1 .37 1.57c0 .35.12.57.49.57s.37-.26.43-.48c.12-.53.25-2.45.31-2.88.19-1.22.49-1.75.49-2.05s-.06-.39-.25-.39a6.42 6.42 0 0 0-.87.22 22.77 22.77 0 0 1-2.66.22h-14.16c-.43 0-4.21-.13-7-.13-.68 0-1 .09-1 .35s.25.26.49.26a16.16 16.16 0 0 1 2.1.13c2 .3 2.54 1 2.66 2.49s.12 2.62.12 9.44v7.7zM241.28 73.37c-.74-1.49-1.11-2.05-1.55-2.05s-.62.22-1.55 2l-13.1 24.93h-.12c-.93-2.32-7.36-18.37-8.29-21.16a25.58 25.58 0 0 1-1.17-4 1.14 1.14 0 0 1 .8-1 8.38 8.38 0 0 1 2.41-.26c.31 0 .62 0 .62-.31s-.25-.31-1.11-.31c-3.09 0-5.81.13-6.37.13s-4.08-.13-7.3-.13c-.62 0-1 .09-1 .31s.25.31.56.31a14.1 14.1 0 0 1 2.78.26c1.61.44 2.41 1.09 3.4 3.41l11 25.93c1.24 3 1.55 3.46 2.16 3.46s1.05-.48 2-2.32c2.23-4.07 10.7-20.07 12.92-24.27h.12l12.12 24.31c.87 1.7 1.24 2.28 1.86 2.28s1-.53 2.6-3.76c2.41-4.9 8.66-18.8 11.38-24.35 1.18-2.4 2.16-4.24 4-4.72a11.19 11.19 0 0 1 2.1-.22c.37 0 .56-.13.56-.35s-.31-.26-.87-.26c-1.92 0-4.58.13-5 .13s-3.15-.13-6.31-.13c-.74 0-1.05.09-1.05.31s.25.31.56.31c2.84 0 3.52.52 3.52 1.31a7.19 7.19 0 0 1-.68 2.8c-2.16 5.6-7.85 18.28-9.52 22.3h-.25l-12.23-24.89z"/><path class="c" d="M291.12 87.62c0 7.87 7 17.18 24 17.18 14.9 0 24.67-8.09 24.67-17.88 0-10.19-10.39-16.4-24.3-16.4-17.07 0-24.37 10-24.37 17.1zm5.87-1.22c0-9.58 7.73-14.38 18.06-14.38 9.77 0 18.8 5.64 18.8 16.13 0 12.72-11.5 15-17.07 15-11.13 0-19.79-6.56-19.79-16.75z"/><path class="a" d="M391.79 83.82c0-6.82 0-8 .12-9.44s.62-2.27 2.41-2.49a20.25 20.25 0 0 1 2-.13c.25 0 .49-.09.49-.26s-.31-.35-1-.35c-1.86 0-6.37.13-6.68.13s-4.2-.13-7-.13c-.68 0-1 .09-1 .35s.25.26.5.26a16.14 16.14 0 0 1 2.1.13c2 .3 2.54 1 2.66 2.49s.12 2.62.12 9.44v7.7a75.38 75.38 0 0 1-.31 9.49c-.25 1.27-.56 2.23-1.79 2.4a13.25 13.25 0 0 1-1.86.18c-.37 0-.5.13-.5.26s.31.35 1 .35c.93 0 2.29 0 3.53-.09s2.29 0 2.54 0c3.59 0 7.67.26 16.57.26 3.28 0 3.46-.17 3.9-1.18a20.43 20.43 0 0 0 .93-4.37c0-.48-.06-.66-.37-.66s-.49.22-.56.57a5.41 5.41 0 0 1-1.61 2.62c-1.48 1.27-4.21 1.31-7.48 1.31-4.82 0-6.43-.31-7.42-1s-1.36-3.58-1.36-10v-7.84zM418.03 91.51a74.92 74.92 0 0 1-.31 9.49c-.25 1.27-.56 2.23-1.79 2.4a13.25 13.25 0 0 1-1.86.18c-.37 0-.49.13-.49.26s.31.35 1 .35c.93 0 2.35 0 3.59-.09s2.35 0 2.47 0c1.79 0 5.94.26 15.28.26 2.41 0 2.91 0 3.34-1.14a31.13 31.13 0 0 0 .8-4.24c0-.31 0-.66-.37-.66s-.43.18-.56.66a3.68 3.68 0 0 1-2.78 3.15 24.7 24.7 0 0 1-5.94.48c-6.06 0-7-.57-7.17-3.59-.06-.92 0-6 0-7.48v-3.88c0-.17.13-.31.43-.31 1.05 0 7.17.09 8.84.22 2.41.18 3 .92 3.21 1.53a3.23 3.23 0 0 1 .25 1.44.38.38 0 0 0 .43.39c.43 0 .43-.48.43-.83s.12-1.92.25-2.8c.18-1.44.49-2.19.49-2.45s-.12-.35-.31-.35-.49.22-.93.57-1.42.53-2.91.61-9 .09-9.83.09c-.31 0-.37-.13-.37-.44V73.28c0-.31.13-.44.37-.44.68 0 7.42 0 8.47.13 3.34.26 4 .79 4.39 1.49a3.48 3.48 0 0 1 .37 1.57c0 .35.12.57.49.57s.37-.26.43-.48c.12-.53.25-2.45.31-2.88.19-1.22.49-1.75.49-2.05s-.06-.39-.25-.39a6.42 6.42 0 0 0-.87.22 22.72 22.72 0 0 1-2.66.22H420.6c-.43 0-4.21-.13-7-.13-.68 0-1 .09-1 .35s.25.26.49.26a16.17 16.17 0 0 1 2.1.13c2 .3 2.54 1 2.66 2.49s.13 2.62.13 9.44v7.7z"/><path class="c" d="M448.02 99.38c-1.11 2.19-2.35 3.85-5.2 4.11-.49 0-1.36.09-1.79.09s-.56.09-.56.26.37.35 1.17.35c2.91 0 6.31-.13 7-.13s3.34.13 4.82.13c.56 0 .93-.09.93-.35s-.19-.26-.62-.26h-.62c-1.05 0-2.35-.39-2.35-1.27a7 7 0 0 1 .87-2.93l3.7-7.74a.65.65 0 0 1 .62-.35h13.29a.57.57 0 0 1 .56.26l5.75 10.76c.37.7 0 1.09-.37 1.18s-.43.13-.43.3.68.26 1.86.31c4.27.09 8.78.09 9.71.09.68 0 1.24-.09 1.24-.35s-.25-.26-.62-.26a11.09 11.09 0 0 1-2.47-.26c-1.3-.26-3.09-1-5.32-4.85-3.82-6.65-13.49-24.71-14.41-26.37-.74-1.36-1-1.57-1.36-1.57s-.62.26-1.36 1.7l-14 27.15zm8.66-9.66c-.19 0-.31-.09-.19-.31l5.44-11.8q.47-1 .93 0l5.87 11.8c.06.18.06.31-.25.31z"/><path class="a" d="M494.71 77.3c2 1.57 9 7.08 16.14 12.55 6.56 5 15.46 11.41 16.14 11.85 3.28 2.32 4 2.8 4.51 2.8s.56-.22.56-3.11l.13-25.62c0-2.62.25-3.59 2.29-3.89a7.64 7.64 0 0 1 1.48-.13c.43 0 .68-.13.68-.31s-.43-.31-1.11-.31c-2.54 0-4.58.13-5.26.13s-3.65-.13-6.43-.13c-.74 0-1.24 0-1.24.31s.06.31.49.31a23 23 0 0 1 3 .22c1.92.35 2.35 1.31 2.41 4.15l.68 22.21c-2-1.44-8.72-6.78-14.84-11.41-9.52-7.21-18.74-14.25-19.66-15-.62-.44-1.67-1.4-2.17-1.4s-.68.48-.68 2.19l-.06 25.05c0 4-.31 5.25-1.85 5.55a12.35 12.35 0 0 1-2.54.26c-.31 0-.5.09-.5.26s.37.35 1 .35c2.78 0 5.38-.13 5.94-.13s3 .13 6.55.13c.74 0 1.11-.09 1.11-.35s-.19-.26-.49-.26a19 19 0 0 1-3.09-.26c-1.67-.35-2.29-1.49-2.41-5.07l-.8-20.94zM546.37 104.81a21.51 21.51 0 0 0 9.34-1.84c4.27-2.14 5.26-5.46 5.26-7.26 0-3.5-1.73-6.21-9-10.28l-1.73-1c-5.81-3.37-7.54-4.85-7.54-7.35 0-3.19 3.34-5.07 7.61-5.07 5.69 0 7.36 1.84 7.73 2.32a6 6 0 0 1 .8 2.19c.06.35.12.57.49.57s.43-.31.43-1a39.19 39.19 0 0 1 .25-4.63c0-.22-.12-.3-.62-.3a14.26 14.26 0 0 1-2.17-.22 33.38 33.38 0 0 0-5.75-.44c-7.85 0-12.8 3.19-12.8 7.87 0 3 1.48 5.68 8 9.49l2.78 1.62c5.32 3.11 7.11 4.85 7.11 7.87 0 2.8-2.91 5.81-8.84 5.81-4.14 0-8.22-1.22-9.15-4.46a5.51 5.51 0 0 1-.19-1.62c0-.35-.06-.48-.43-.48s-.43.22-.5.7a42.7 42.7 0 0 0-.31 4.63c0 1.18.06 1.36.93 1.66a25.58 25.58 0 0 0 8.29 1.18zM345.96 92a74.13 74.13 0 0 1-.31 9.5c-.25 1.27-.57 2.23-1.83 2.41a13.71 13.71 0 0 1-1.89.17c-.38 0-.5.13-.5.26s.31.35 1 .35c1.89 0 5.86-.13 6-.13s4.28.13 7.75.13c.69 0 1-.13 1-.35s-.13-.26-.5-.26c-.57 0-2-.09-2.83-.17a2.36 2.36 0 0 1-2.46-2.41 74.15 74.15 0 0 1-.31-9.5V74c0-.44.13-.74.5-.83a10.86 10.86 0 0 1 2.79-.27c1.45 0 5.29-.17 8.63 2.19a7.73 7.73 0 0 1 3.53 6.74c0 4-4.79 7.13-10.9 7.13-1.32 0-1.7 0-1.7.39s.38.3.69.3a13 13 0 0 0 1.32 0c8.94 0 15.49-4.2 15.49-10.42a6.8 6.8 0 0 0-3.15-5.21c-1-.66-3.84-2.49-11.71-2.49-2.9 0-6.55.13-7.94.13-.5 0-4.28-.13-7.12-.13-.69 0-1 .09-1 .35s.25.26.5.26a16.76 16.76 0 0 1 2.14.13c2.08.31 2.58 1 2.71 2.49s.13 2.63.13 9.46V92z"/><path class="a" d="M353.72 89.28c.6.9 0-.29 3.28 2.69s20.2 15.85 22 17.07c7.18 5 29.93 13.37 56.3 0 .32-.16-1 .1-1.44.41a115.44 115.44 0 0 1-15.62 3.07c-15.19 1.56-24.24-1-33.65-6-10.83-5.81-19.78-14.3-20.55-15-1.44-1.23-3-2.5-4.69-2.39-2.4.15-6.43.2-5.59.2zM135.96 138.17a11.66 11.66 0 0 0 4-.56.81.81 0 0 0 .57-.69 24.2 24.2 0 0 0 .49-3.21c0-.19 0-.36-.2-.36s-.23.09-.3.48a4.13 4.13 0 0 1-.76 1.6c-.89 1.1-2.09 1.36-4.07 1.36-3 0-7-2.86-7-8.59 0-2.35.42-4.63 2.05-6.24a5.49 5.49 0 0 1 4.19-1.5 6.28 6.28 0 0 1 4.52 1.5 3.55 3.55 0 0 1 .87 2.22c0 .33 0 .53.22.53s.25-.19.27-.56 0-1.81.07-2.6.11-1.13.11-1.33-.08-.27-.33-.29c-.67-.08-1.38-.29-2.23-.42a20.62 20.62 0 0 0-3.23-.24c-3.31 0-5.43 1-7 2.56a10.1 10.1 0 0 0 .16 13.71 10.53 10.53 0 0 0 7.64 2.64z"/><path class="c" d="M152.58 138.17c5.65 0 9.22-4.36 9.22-9.88s-3.45-9-9-9c-6.68 0-9.19 5.33-9.19 9.45s2.58 9.45 9 9.45zm.93-1.2c-4.28 0-6.83-4-6.83-9 0-6 2.91-7.55 5.48-7.55 3.65 0 6.52 3.35 6.52 8.76 0 7-3.61 7.79-5.17 7.79z"/><path class="a" d="M167.8 124.42h.07c.4.46 2.87 3.48 5.3 6.08s5.17 5.64 6.57 7.09c.24.26.51.53.76.53s.29-.22.29-.75l.25-15.21c0-1.34.2-1.85.83-2a2.05 2.05 0 0 1 .67-.08c.26 0 .4-.06.4-.21s-.23-.22-.51-.22c-1.09 0-1.94.08-2.18.08-.47 0-1.54-.08-2.69-.08-.33 0-.58 0-.58.22s.09.21.36.21a3.4 3.4 0 0 1 1.18.14c.54.24.73.7.76 2.17l.23 10.82h-.14c-.38-.38-3.38-3.85-4.9-5.49-3.25-3.5-6.64-7.42-6.91-7.74s-.57-.75-.82-.75-.29.35-.29.83l-.2 14.28c0 2.09-.11 2.79-.69 3a3.81 3.81 0 0 1-1 .13c-.22 0-.36.05-.36.19s.2.24.49.24c1.16 0 2.2-.08 2.41-.08.42 0 1.31.08 2.75.08.32 0 .51 0 .51-.24s-.13-.19-.38-.19a3.3 3.3 0 0 1-1.16-.17c-.45-.16-.73-.8-.78-2.66l-.24-10.14zM191.68 136.7c.42 1.13.55 1.47.84 1.47s.45-.39 1-1.79c.49-1.2 1.53-3.83 3-7.35 1.2-3 1.81-4.28 2.67-6.54.61-1.54.94-1.95 1.23-2.17a1.82 1.82 0 0 1 1.09-.29c.23 0 .36 0 .36-.21s-.18-.22-.47-.22c-.67 0-1.72.08-2.1.08s-1.22-.08-2.34-.08c-.42 0-.62 0-.62.24s.17.19.38.19a2.69 2.69 0 0 1 .89.13.45.45 0 0 1 .3.46 3 3 0 0 1-.2.88c-.54 1.6-3.43 9.36-4.39 12h-.08l-3.83-11a7.41 7.41 0 0 1-.51-1.85.6.6 0 0 1 .22-.51 1.51 1.51 0 0 1 .87-.17c.2 0 .33 0 .33-.21s-.24-.22-.51-.22c-1.11 0-2.18.08-2.73.08-.78 0-2.05-.08-3.23-.08-.33 0-.58 0-.58.22s.07.21.27.21a3.18 3.18 0 0 1 .86.1c.8.24 1.18.51 1.7 1.84l5.62 14.74zM204.46 130.84c0 2.22 0 4.12-.11 5.14-.08.69-.2 1.23-.64 1.32a3.4 3.4 0 0 1-.8.09c-.27 0-.36.07-.36.19s.16.24.45.24c.89 0 2.29-.08 2.8-.08 1.32 0 2.81.14 6.18.14.85 0 1 0 1.2-.62a19.55 19.55 0 0 0 .29-2.67c0-.25 0-.45-.18-.45s-.2.1-.25.37c-.16 1-.42 1.5-1 1.79a5.25 5.25 0 0 1-2.09.29c-2.27 0-2.63-.37-2.67-2v-5.63c0-.14 0-.24.13-.24.54 0 2.74 0 3.16.06.83.1 1.14.46 1.25.94a6.94 6.94 0 0 1 .08.86c0 .13 0 .22.2.22s.2-.27.2-.46 0-1.13.09-1.61a17.07 17.07 0 0 1 .18-1.76c0-.14-.07-.19-.16-.19s-.2.11-.35.31a1.52 1.52 0 0 1-1.07.37h-3.56c-.13 0-.16-.09-.16-.27v-6.1c0-.16 0-.24.16-.24.44 0 2.79 0 3.16.09 1.11.14 1.34.43 1.49.88a2.59 2.59 0 0 1 .14.86c0 .22 0 .33.2.33s.21-.14.23-.27c0-.29.09-1.34.11-1.58.07-1.12.18-1.41.18-1.57s0-.22-.14-.22a3.17 3.17 0 0 0-.35.1 7.72 7.72 0 0 1-1 .14h-5.56c-.71 0-2-.08-3.2-.08-.33 0-.49 0-.49.22s.13.21.38.21a4.27 4.27 0 0 1 .87.08c.73.16.91.56 1 1.37s0 1.45 0 5.11v4.25zM219.77 124.42h.06c.41.46 2.88 3.48 5.3 6.08s5.17 5.64 6.58 7.09c.24.26.5.53.76.53s.29-.22.29-.75l.24-15.21c0-1.34.2-1.85.82-2a2.13 2.13 0 0 1 .67-.08c.27 0 .41-.06.41-.21s-.23-.22-.52-.22c-1.09 0-1.94.08-2.18.08-.47 0-1.54-.08-2.69-.08-.33 0-.58 0-.58.22s.09.21.35.21a3.41 3.41 0 0 1 1.18.14c.53.24.74.7.76 2.17l.23 10.82h-.08c-.38-.38-3.39-3.85-4.9-5.49-3.25-3.5-6.64-7.42-6.9-7.74s-.59-.75-.83-.75-.29.35-.29.83l-.2 14.28c0 2.09-.11 2.79-.69 3a3.74 3.74 0 0 1-1 .13c-.22 0-.35.05-.35.19s.2.24.49.24c1.15 0 2.21-.08 2.41-.08.42 0 1.31.08 2.75.08.32 0 .52 0 .52-.24s-.14-.19-.38-.19a3.29 3.29 0 0 1-1.15-.17c-.45-.16-.74-.8-.78-2.66l-.24-10.14zM243.05 130.84c0 2.22 0 4.12-.12 5.14-.06.69-.2 1.23-.64 1.32a3.49 3.49 0 0 1-.8.09c-.27 0-.36.07-.36.19s.15.24.44.24c.89 0 2.3-.08 2.82-.08s2 .08 3.5.08c.24 0 .42-.08.42-.24s-.12-.19-.36-.19a8.82 8.82 0 0 1-1.13-.09c-.67-.09-.8-.64-.86-1.31-.1-1-.1-2.94-.1-5.16V121l2.8.07c2 0 2.59.73 2.63 1.36v.25c0 .37.06.49.24.49s.18-.14.2-.4c0-.62.08-2.29.08-2.79 0-.35 0-.5-.18-.5a9.17 9.17 0 0 1-2.13.24h-8.82a20.36 20.36 0 0 1-2.23-.12c-.56-.05-.77-.29-1-.29s-.2.14-.27.46-.47 2.38-.47 2.76 0 .4.2.4.21-.11.26-.3a2.75 2.75 0 0 1 .38-.83c.33-.54.86-.65 2.15-.7l3.33-.1v9.88zM256.12 130.84c0 2.33 0 4.25-.1 5.25-.06.7-.2 1.12-.65 1.21a3.28 3.28 0 0 1-.8.09c-.26 0-.35.07-.35.19s.15.24.44.24c.89 0 2.3-.08 2.82-.08s2 .08 3.47.08c.24 0 .42-.08.42-.24s-.11-.19-.35-.19a8.67 8.67 0 0 1-1.14-.09c-.68-.09-.83-.53-.89-1.18-.09-1-.09-3-.09-5.28v-4.25-5.11c0-.77.23-1.26.82-1.37a3.67 3.67 0 0 1 .65-.11c.23 0 .36 0 .36-.24s-.18-.19-.47-.19c-.85 0-2.16.08-2.71.08s-2.06-.08-2.91-.08c-.35 0-.53 0-.53.19s.14.24.35.24a3.18 3.18 0 0 1 .8.1c.5.13.73.54.76 1.36s0 1.45 0 5.11v4.25z"/><path class="c" d="M272.74 138.17c5.66 0 9.22-4.36 9.22-9.88s-3.45-9-9-9c-6.69 0-9.2 5.33-9.2 9.45s2.59 9.45 9 9.45zm.94-1.2c-4.28 0-6.84-4-6.84-9 0-6 2.92-7.55 5.48-7.55 3.66 0 6.52 3.35 6.52 8.76 0 7-3.6 7.79-5.16 7.79z"/><path class="a" d="M287.96 124.42h.08c.39.46 2.86 3.48 5.3 6.08s5.16 5.64 6.57 7.09c.24.26.51.53.75.53s.29-.22.29-.75l.24-15.21c0-1.34.2-1.85.83-2a2 2 0 0 1 .67-.08c.26 0 .39-.06.39-.21s-.21-.22-.52-.22c-1.09 0-1.94.08-2.18.08-.47 0-1.53-.08-2.69-.08-.33 0-.57 0-.57.22s.09.21.35.21a3.41 3.41 0 0 1 1.18.14c.54.24.74.7.76 2.17l.23 10.82h-.11c-.38-.38-3.39-3.85-4.9-5.49-3.26-3.5-6.63-7.42-6.9-7.74s-.58-.75-.82-.75-.3.35-.3.83l-.2 14.28c0 2.09-.11 2.79-.68 3a3.78 3.78 0 0 1-1 .13c-.21 0-.35.05-.35.19s.2.24.48.24c1.17 0 2.21-.08 2.41-.08.42 0 1.32.08 2.77.08.3 0 .5 0 .5-.24s-.12-.19-.38-.19a3.28 3.28 0 0 1-1.15-.17c-.45-.16-.74-.8-.79-2.66l-.24-10.14z"/><path class="c" d="M312.81 132.84c0 2.11 1.44 5.33 6.19 5.33a6.91 6.91 0 0 0 5.28-2.19 6.43 6.43 0 0 0 5.25 1.85h1.72c.49 0 .67-.08.67-.22s-.12-.21-.32-.21a6.15 6.15 0 0 1-2.38-.84 23 23 0 0 1-3.1-2.36 10 10 0 0 0 2.18-5.72c0-.29-.33-.43-.76-.48a23.82 23.82 0 0 0-2.66-.17c-.18 0-.36 0-.36.24s.14.19.27.19a1.6 1.6 0 0 1 1.09.37 1.46 1.46 0 0 1 .42 1.1 7.57 7.57 0 0 1-1.08 3.72c-.42-.41-3.16-3.08-3.92-4-1.77-2.16-3.69-4.07-3.69-6.34a2.49 2.49 0 0 1 2.39-2.76 3 3 0 0 1 2.47 1.08 3.38 3.38 0 0 1 .65 2c0 .37 0 .46.15.46s.23 0 .27-.41.24-2.28.24-3.08c0-.29 0-.48-.38-.62a7 7 0 0 0-2.69-.51c-3.87 0-5.43 2.54-5.42 4.44a5.6 5.6 0 0 0 1.13 3.42 7.12 7.12 0 0 0-3.63 5.72zm6.95 3.82c-2.32 0-4.27-1.93-4.27-5a4.46 4.46 0 0 1 1.53-3.66c.38.61 1.82 2.33 2.39 3s2.71 2.94 4 4.14a5.6 5.6 0 0 1-3.66 1.45z"/><path class="a" d="M344.37 136.7c.43 1.13.56 1.47.85 1.47s.44-.39 1-1.79c.49-1.2 1.53-3.83 3-7.35 1.21-3 1.8-4.28 2.68-6.54.61-1.54.94-1.95 1.23-2.17a1.8 1.8 0 0 1 1.09-.29c.23 0 .35 0 .35-.21s-.17-.22-.45-.22c-.68 0-1.73.08-2.1.08s-1.23-.08-2.33-.08c-.42 0-.62 0-.62.24s.17.19.38.19a2.62 2.62 0 0 1 .88.13.45.45 0 0 1 .3.46 2.84 2.84 0 0 1-.21.88c-.53 1.6-3.42 9.36-4.39 12h-.07l-3.84-11a7.89 7.89 0 0 1-.5-1.85.59.59 0 0 1 .21-.51 1.51 1.51 0 0 1 .88-.17c.2 0 .33 0 .33-.21s-.24-.22-.52-.22c-1.12 0-2.18.08-2.74.08-.79 0-2-.08-3.22-.08-.33 0-.59 0-.59.22s.07.21.27.21a3.16 3.16 0 0 1 .86.1c.8.24 1.18.51 1.7 1.84l5.57 14.79zM357.16 130.84c0 2.33 0 4.25-.12 5.25-.06.7-.2 1.12-.63 1.21a3.48 3.48 0 0 1-.8.09c-.27 0-.36.07-.36.19s.15.24.46.24c.88 0 2.29-.08 2.8-.08s2 .08 3.46.08c.26 0 .43-.08.43-.24s-.11-.19-.35-.19a8.62 8.62 0 0 1-1.13-.09c-.67-.09-.83-.53-.89-1.18-.09-1-.09-3-.09-5.28v-4.25-5.11c0-.77.23-1.26.83-1.37a3.41 3.41 0 0 1 .67-.08c.21 0 .35 0 .35-.24s-.18-.19-.47-.19c-.85 0-2.15.08-2.71.08s-2.06-.08-2.89-.08c-.36 0-.54 0-.54.19s.14.24.36.24a3.27 3.27 0 0 1 .8.1c.48.13.71.54.76 1.36s0 1.45 0 5.11v4.25zM369.47 138.17a6.08 6.08 0 0 0 3.54-1 5 5 0 0 0 2.11-4.2c0-2.28-1-3.9-3.66-6.15l-.62-.5c-1.85-1.53-2.36-2.36-2.36-3.48a2.42 2.42 0 0 1 2.65-2.49 2.8 2.8 0 0 1 2.44 1.18 3.11 3.11 0 0 1 .57 1.6c0 .29.06.43.23.43s.24-.19.24-.72c0-1.88.09-2.58.09-2.89s-.12-.24-.32-.29a9.77 9.77 0 0 0-3-.41c-3.09 0-5.13 1.9-5.13 4.55 0 2 .85 3.65 3.29 5.71l1 .88c1.85 1.53 2.18 2.67 2.18 3.85a2.8 2.8 0 0 1-3 2.76 3.09 3.09 0 0 1-3.18-2.44 5 5 0 0 1-.21-1.23c0-.19 0-.42-.21-.42s-.24.27-.27.64-.11 1.82-.11 3.16c0 .53.06.64.42.82a7.07 7.07 0 0 0 3.24.62zM380.64 130.84c0 2.33 0 4.25-.12 5.25-.06.7-.2 1.12-.63 1.21a3.49 3.49 0 0 1-.8.09c-.27 0-.36.07-.36.19s.15.24.45.24c.88 0 2.29-.08 2.8-.08s2 .08 3.47.08c.25 0 .42-.08.42-.24s-.11-.19-.35-.19a8.65 8.65 0 0 1-1.14-.09c-.67-.09-.83-.53-.89-1.18-.09-1-.09-3-.09-5.28v-4.25-5.11c0-.77.23-1.26.83-1.37a3.45 3.45 0 0 1 .67-.08c.21 0 .35 0 .35-.24s-.18-.19-.47-.19c-.85 0-2.15.08-2.71.08s-2.06-.08-2.89-.08c-.36 0-.55 0-.55.19s.14.24.36.24a3.27 3.27 0 0 1 .8.1c.48.13.71.54.76 1.36s0 1.45 0 5.11v4.25zM393.88 130.84c0 2.22 0 4.12-.11 5.14-.06.69-.2 1.23-.65 1.32a3.4 3.4 0 0 1-.8.09c-.26 0-.35.07-.35.19s.15.24.44.24c.89 0 2.3-.08 2.81-.08s2 .08 3.5.08c.24 0 .41-.08.41-.24s-.11-.19-.35-.19a8.88 8.88 0 0 1-1.14-.09c-.67-.09-.8-.64-.86-1.31-.12-1-.12-2.94-.12-5.16V121l2.81.07c2 0 2.57.73 2.62 1.36v.25c0 .37.06.49.24.49s.18-.14.2-.4c0-.62.06-2.29.06-2.79 0-.35 0-.5-.17-.5a9.18 9.18 0 0 1-2.13.24h-8.82a20 20 0 0 1-2.23-.12 5.28 5.28 0 0 1-1-.29c-.12 0-.2.14-.26.46s-.47 2.38-.47 2.76 0 .4.2.4.2-.11.24-.3a3.11 3.11 0 0 1 .38-.83c.33-.54.88-.65 2.16-.7l3.31-.1v9.88z"/><path class="c" d="M413.23 138.17c5.64 0 9.22-4.36 9.22-9.88s-3.45-9-9-9c-6.67 0-9.19 5.33-9.19 9.45s2.57 9.45 9 9.45zm.92-1.2c-4.27 0-6.83-4-6.83-9 0-6 2.91-7.55 5.48-7.55 3.65 0 6.52 3.35 6.52 8.76 0 7-3.62 7.79-5.18 7.79zM427.37 130.84c0 2.22 0 4.12-.11 5.14-.09.69-.21 1.23-.65 1.32a3.4 3.4 0 0 1-.8.09c-.27 0-.36.07-.36.19s.17.24.45.24c.89 0 2.29-.08 2.71-.08s2 .08 3.28.08c.29 0 .44-.08.44-.24s-.09-.19-.27-.19a9.64 9.64 0 0 1-1.09-.09c-.67-.09-.8-.64-.86-1.32-.11-1-.11-2.92-.11-5.17v-.34c0-.14.06-.19.17-.19h1.94a.45.45 0 0 1 .41.17c.29.35 1.32 2 2.21 3.32 1.24 1.87 2.09 3 3 3.54a4.24 4.24 0 0 0 2.39.46h2.1c.27 0 .43 0 .43-.24s-.09-.19-.26-.19a3.64 3.64 0 0 1-.64-.08 4.3 4.3 0 0 1-2.48-1.63c-1.32-1.5-2.86-3.65-4.84-6.35 2.25-2 2.95-3.61 2.95-5.4a4.32 4.32 0 0 0-1.51-3.3 6.69 6.69 0 0 0-4.1-1c-.7 0-2.39.08-3.15.08-.47 0-1.86-.08-3-.08-.33 0-.5 0-.5.22s.14.21.38.21a4.3 4.3 0 0 1 .88.08c.72.16.91.56 1 1.37s0 1.45 0 5.11v4.25zm2.63-9.68c0-.19 0-.29.2-.33a4.89 4.89 0 0 1 1.18-.1c1.32 0 3.4 1 3.4 4.42a4.41 4.41 0 0 1-1.32 3.61 2 2 0 0 1-1.57.41 5.7 5.7 0 0 1-1.7-.24c-.15-.08-.2-.17-.2-.45v-7.33z"/><path class="a" d="M446.07 138.17a6.12 6.12 0 0 0 3.54-1 5 5 0 0 0 2.09-4.2c0-2.28-1-3.9-3.65-6.15l-.63-.5c-1.85-1.53-2.36-2.36-2.36-3.48a2.43 2.43 0 0 1 2.65-2.49 2.79 2.79 0 0 1 2.44 1.18 3.11 3.11 0 0 1 .57 1.6c0 .29.07.43.23.43s.24-.19.24-.72c0-1.88.09-2.58.09-2.89s-.11-.24-.32-.29a9.74 9.74 0 0 0-3-.41c-3.1 0-5.14 1.9-5.14 4.55 0 2 .85 3.65 3.28 5.71l1 .88c1.85 1.53 2.18 2.67 2.18 3.85a2.8 2.8 0 0 1-3 2.76 3.09 3.09 0 0 1-3.18-2.44 4.84 4.84 0 0 1-.2-1.23c0-.19 0-.42-.23-.42s-.24.27-.27.64-.11 1.82-.11 3.16c0 .53.06.64.42.82a7.1 7.1 0 0 0 3.25.62z"/><path class="c" d="M464.13 130.84c0 2.22 0 4.12-.11 5.14-.09.69-.21 1.23-.65 1.32a3.4 3.4 0 0 1-.8.09c-.27 0-.36.07-.36.19s.17.24.45.24c.89 0 2.29-.08 2.8-.08.67 0 2.7.14 3.24.14 4.09 0 5.93-2.66 5.93-5.25 0-2.81-2.23-4.53-4-5.2a5.31 5.31 0 0 0 2.27-4.22c0-1.27-.71-3.62-4.75-3.62-.76 0-1.62.08-2.71.08-.45 0-1.85-.08-3-.08-.33 0-.5 0-.5.22s.13.21.38.21a4.31 4.31 0 0 1 .88.08c.73.16.91.56 1 1.37s0 1.45 0 5.11v4.25zm2.66-9.79c0-.27 0-.37.21-.42a3.35 3.35 0 0 1 .73 0c1.92 0 2.79 2.12 2.79 3.74a3.28 3.28 0 0 1-.91 2.55 2.11 2.11 0 0 1-1.61.46 4.85 4.85 0 0 1-1-.08c-.09 0-.17-.06-.17-.25v-6zm5.1 12.68c0 2.5-1.68 3.1-2.7 3.1a3.7 3.7 0 0 1-1.62-.3c-.71-.3-.79-.72-.79-2.32v-5.71c0-.11 0-.16.13-.16h1a3 3 0 0 1 1.85.59 5.91 5.91 0 0 1 2.15 4.79z"/><path class="a" d="M479.15 130.12c0 3.5.85 5.27 2 6.39a6.73 6.73 0 0 0 4.93 1.66 6.33 6.33 0 0 0 4.63-1.74c1.88-1.73 2.12-4.58 2.12-7.25v-2.59-5.11c0-.77.23-1.26.83-1.37a3 3 0 0 1 .71-.11c.27 0 .41 0 .41-.21s-.16-.22-.47-.22c-.88 0-2.27.08-2.54.08 0 0-1.42-.08-2.56-.08-.32 0-.47 0-.47.22s.14.21.38.21a4 4 0 0 1 .8.08c.73.16.91.56 1 1.37s0 1.45 0 5.11v3c0 2.47-.06 4.65-1.29 6a4.21 4.21 0 0 1-3.07 1.29 3.9 3.9 0 0 1-2.79-1c-1.09-1-1.74-2.43-1.74-5.92v-3.39-5.11c0-.77.23-1.26.82-1.37a3.25 3.25 0 0 1 .65-.08c.23 0 .37 0 .37-.21s-.17-.22-.5-.22c-.8 0-2.2.08-2.74.08s-2.06-.08-3.25-.08c-.33 0-.48 0-.48.22s.13.21.38.21a4.3 4.3 0 0 1 .88.08c.72.16.91.56 1 1.37s0 1.45 0 5.11v3.53z"/><path class="c" d="M499.3 130.84c0 2.22 0 4.12-.11 5.14-.09.69-.2 1.23-.65 1.32a3.39 3.39 0 0 1-.8.09c-.26 0-.35.07-.35.19s.15.24.44.24c.89 0 2.3-.08 2.72-.08s2 .08 3.27.08c.29 0 .45-.08.45-.24s-.09-.19-.27-.19a9.31 9.31 0 0 1-1.09-.09c-.67-.09-.8-.64-.88-1.32-.11-1-.11-2.92-.11-5.17v-.34c0-.14.06-.19.18-.19h1.94a.44.44 0 0 1 .39.17c.29.35 1.32 2 2.21 3.32 1.24 1.87 2.09 3 3.06 3.54a4.21 4.21 0 0 0 2.37.46h2.12c.26 0 .42 0 .42-.24s-.09-.19-.27-.19a3.33 3.33 0 0 1-.62-.08 4.32 4.32 0 0 1-2.5-1.63c-1.32-1.5-2.84-3.65-4.83-6.35 2.24-2 2.94-3.61 2.94-5.4a4.31 4.31 0 0 0-1.51-3.3 6.66 6.66 0 0 0-4.1-1c-.68 0-2.38.08-3.13.08-.47 0-1.88-.08-3.06-.08-.33 0-.48 0-.48.22s.13.21.38.21a4.24 4.24 0 0 1 .86.08c.74.16.92.56 1 1.37s0 1.45 0 5.11v4.25zm2.63-9.68c0-.19 0-.29.2-.33a5 5 0 0 1 1.18-.1c1.32 0 3.41 1 3.41 4.42a4.42 4.42 0 0 1-1.3 3.61 2.1 2.1 0 0 1-1.59.41 5.7 5.7 0 0 1-1.7-.24c-.15-.08-.2-.17-.2-.45v-7.33z"/><path class="a" d="M516.37 130.84c0 2.22 0 4.12-.11 5.14-.09.69-.2 1.23-.65 1.32a3.39 3.39 0 0 1-.8.09c-.27 0-.35.07-.35.19s.15.24.44.24c.89 0 2.3-.08 2.8-.08 1.32 0 2.82.14 6.18.14.85 0 1 0 1.2-.62a18.87 18.87 0 0 0 .3-2.67c0-.25 0-.45-.18-.45s-.2.1-.24.37c-.17 1-.43 1.5-1 1.79a5.26 5.26 0 0 1-2.09.29c-2.27 0-2.63-.37-2.66-2v-5.63c0-.14 0-.24.12-.24.54 0 2.74 0 3.16.06.83.1 1.14.46 1.26.94.06.32.06.62.09.86s0 .22.2.22.2-.27.2-.46 0-1.13.09-1.61a15.93 15.93 0 0 1 .18-1.76c0-.14-.08-.19-.17-.19s-.2.11-.35.31-.53.32-1.07.37-3.07 0-3.56 0c-.14 0-.15-.09-.15-.27v-6.1c0-.16 0-.24.15-.24.44 0 2.78 0 3.16.09 1.11.14 1.33.43 1.48.88a2.52 2.52 0 0 1 .13.86c0 .22 0 .33.2.33s.21-.14.23-.27c0-.29.09-1.34.11-1.58.07-1.12.18-1.41.18-1.57s0-.22-.13-.22a3 3 0 0 0-.35.1 7.45 7.45 0 0 1-1 .14h-5.57c-.71 0-2-.08-3.21-.08-.33 0-.48 0-.48.22s.12.21.38.21a4.24 4.24 0 0 1 .86.08c.73.16.91.56 1 1.37s0 1.45 0 5.11v4.25z"/><path class="c" d="M536.51 131.54a.22.22 0 0 1 .23.16l1.77 5.13a.39.39 0 0 1-.2.54c-.23 0-.32.08-.32.22s.27.16.68.19h4.21c.81 0 1 0 1-.24s-.11-.19-.29-.19a5.24 5.24 0 0 1-.94-.09c-.47-.13-1.1-.46-2-2.63-1.42-3.66-5-13.51-5.52-14.83-.23-.56-.36-.77-.56-.77s-.35.26-.62 1l-5.59 15.15c-.45 1.2-.88 2-1.89 2.17h-.7c-.2 0-.27.05-.27.19s.13.24.42.24c1.16 0 2.39-.08 2.63-.08.7 0 1.65.08 2.36.08.24 0 .38 0 .38-.24s-.06-.19-.33-.19h-.33c-.7 0-.89-.32-.89-.75a4.9 4.9 0 0 1 .33-1.47l1.2-3.45c0-.15.09-.19.21-.19zm-4.53-1.21c-.09 0-.11-.07-.09-.16l2.06-5.94c0-.1.06-.21.12-.21s.09.11.12.21l2 6c0 .08 0 .14-.11.14z"/><path class="a" d="M545.37 130.12c0 3.5.85 5.27 2 6.39a6.76 6.76 0 0 0 4.95 1.66 6.37 6.37 0 0 0 4.63-1.74c1.86-1.73 2.1-4.58 2.1-7.25v-2.59-5.11c0-.77.23-1.26.83-1.37a3.13 3.13 0 0 1 .65-.08c.26 0 .4 0 .4-.21s-.15-.22-.47-.22c-.87 0-2.27.08-2.54.08 0 0-1.42-.08-2.56-.08-.3 0-.47 0-.47.22s.14.21.38.21a4.06 4.06 0 0 1 .8.08c.74.16.92.56 1 1.37s0 1.45 0 5.11v3c0 2.47-.06 4.65-1.29 6a4.18 4.18 0 0 1-3.07 1.29 3.9 3.9 0 0 1-2.79-1c-1.09-1-1.74-2.43-1.74-5.92v-3.39-5.11c0-.77.23-1.26.83-1.37a3 3 0 0 1 .63-.08c.23 0 .36 0 .36-.21s-.15-.22-.48-.22c-.8 0-2.21.08-2.74.08s-2.07-.08-3.25-.08c-.33 0-.5 0-.5.22s.13.21.38.21a4.3 4.3 0 0 1 .88.08c.72.16.91.56 1 1.37s0 1.45 0 5.11v3.53zM74.37 83.49V0s.15.39.67 1.43 6.68 12.74 8.25 20.16 3 11.31 2.88 18.6a72.89 72.89 0 0 1-3.67 22c-2.49 7.54-4.72 13.4-5 16.39s-.26 4.94-.26 4.94z"/><g class="d"><path class="a" d="M82.201 84.09L89.681.97l.55.05-7.48 83.12zM88.61 1.25l-7.24 82.8.55.05 7.24-82.8-.55-.05zM80.798 84.003L88.043 1.2l.548.048-7.245 82.803zM80.229 83.957l7.244-82.804.548.048-7.244 82.804zM86.9 1.1l-7.25 82.8.55.05 7.25-82.8-.55-.05zM79.08 83.854L86.324 1.05l.548.048-7.244 82.804zM78.51 83.797L85.755.994l.548.047-7.245 82.804zM85.19.95l-7.25 82.8.55.05L85.73 1l-.54-.05zM77.371 83.704L84.616.9l.548.048-7.245 82.804zM84.05.85l-7.25 82.8.55.05L84.59.9l-.54-.05zM83.47.8l-7.24 82.8.55.05L84.02.85 83.47.8zM82.9.75l-7.24 82.8.55.05L83.45.8 82.9.75zM75.093 83.498L82.338.694l.548.048-7.245 82.804zM81.76.65l-7.24 82.8.55.05L82.31.7l-.55-.05zM73.944 83.405L81.188.601l.548.048-7.244 82.804zM80.62.55l-7.24 82.8.55.05L81.17.6l-.55-.05zM72.805 83.302L80.049.498l.548.048-7.244 82.804zM72.235 83.255L79.48.452l.547.048-7.244 82.803zM78.91.4l-7.24 82.8.54.05L79.46.45 78.91.4zM78.34.35l-7.25 82.8.55.05L78.89.4l-.55-.05zM70.527 83.106L77.77.302l.548.048-7.244 82.804zM77.2.25l-7.25 82.8.55.05L77.75.3 77.2.25zM69.388 83.003L76.632.199l.548.048-7.244 82.804zM76.06.15l-7.25 82.8.55.05L76.6.2l-.54-.05zM75.49.1l-7.25 82.8.55.05L76.04.15 75.49.1zM67.67 82.853L74.913.05l.548.048-7.245 82.804zM74.34 0L67.1 82.8l.55.05L74.89.05 74.34 0z"/></g><path class="a" d="M80.52 83.49c.39-4.94 2.59-16.55 6.42-23.93 4.32-8.32 11.88-13.4 21.23-15.48 11.14-2.47 34.59 3.25 32 29.91 0 .29-1.89-3.1-4.46-7.67-3.28-5.85-7.6-12.22-15.59-13.92-9-1.9-18.34.65-23.06 5.85S87.2 69.44 86.29 83.49z"/><g class="e"><path class="a" d="M144.02 71.65L86.6 97.21l.23.52 57.42-25.56-.23-.52zM86.36 96.684l57.416-25.563.231.52-57.416 25.564zM86.124 96.158l57.417-25.564.232.521-57.417 25.563zM85.889 95.627l57.416-25.563.232.52L86.12 96.148zM85.654 95.1l57.416-25.563.232.52-57.416 25.564zM85.421 94.037l57.194-25.768.233.518-57.193 25.769z"/><path class="a" d="M85.183 94.033L142.6 68.47l.232.52-57.417 25.564z"/><path class="a" d="M142.37 67.95L84.95 93.51l.23.52 57.42-25.56-.23-.52zM84.717 92.985l57.416-25.563.232.52L84.95 93.507zM84.481 92.455l57.417-25.564.231.521-57.416 25.563zM84.246 91.928l57.417-25.563.232.52L84.478 92.45zM141.43 65.83L84.01 91.4l.23.52 57.42-25.57-.23-.52zM83.766 90.87l57.416-25.562.232.52-57.416 25.564zM83.54 90.33l57.417-25.563.231.52-57.416 25.564zM83.295 89.804l57.417-25.564.232.521-57.417 25.563zM83.06 89.277l57.417-25.563.232.52-57.417 25.564zM82.825 88.747l57.416-25.564.232.52-57.416 25.564z"/><path class="a" d="M82.594 88.23l57.417-25.564.231.52L82.826 88.75zM82.359 87.698l57.416-25.563.232.52L82.59 88.22zM82.124 87.172l57.416-25.563.232.52-57.416 25.564zM81.888 86.641l57.416-25.563.232.52L82.12 87.163zM81.653 86.105L139.07 60.54l.231.521-57.416 25.563zM81.418 85.574l57.416-25.563.232.52-57.417 25.564zM81.183 85.048l57.416-25.564.232.52-57.416 25.564zM80.938 84.521l57.416-25.563.232.52L81.17 85.042zM138.13 58.43L80.71 83.99l.23.52 57.42-25.56-.23-.52zM80.471 83.463L137.888 57.9l.232.52-57.417 25.564zM80.246 82.932l57.416-25.563.232.52-57.416 25.564zM80 82.406l57.417-25.564.232.521-57.416 25.563zM79.775 81.875l57.417-25.563.231.52-57.416 25.564zM79.53 81.349l57.417-25.564.232.52L79.762 81.87zM79.305 80.818l57.416-25.563.232.52L79.537 81.34zM79.06 80.291l57.416-25.563.232.52-57.416 25.564zM78.825 79.755l57.416-25.564.232.521-57.416 25.564zM78.59 79.224l57.416-25.563.232.52L78.82 79.745zM135.77 53.14L78.35 78.7l.24.52L136 53.66l-.23-.52zM78.123 78.176l57.416-25.563.232.52-57.416 25.564zM135.3 52.08L77.88 77.64l.24.52 57.41-25.56-.23-.52z"/><path class="a" d="M77.652 77.119l57.417-25.563.232.52L77.884 77.64zM77.408 76.582l57.416-25.563.232.52-57.417 25.564zM77.182 76.052l57.416-25.564.232.521-57.416 25.563zM76.937 75.525l57.416-25.563.232.52L77.17 76.046zM76.711 74.995l57.417-25.564.232.52-57.417 25.564zM76.467 74.468l57.416-25.563.232.52L76.698 74.99zM133.65 48.38L76.24 73.94l.23.52 57.41-25.56-.23-.52zM76 73.42l57.417-25.563.231.52-57.416 25.564zM133.18 47.32L75.76 72.88l.24.52 57.41-25.56-.23-.52zM132.95 46.79L75.53 72.35l.23.53 57.42-25.57-.23-.52zM75.295 71.826l57.416-25.563.232.52-57.416 25.564zM75.06 71.296l57.415-25.564.232.52-57.416 25.564zM74.824 70.769l57.417-25.563.232.52L75.056 71.29zM74.589 70.228l57.416-25.563.232.52L74.82 70.75z"/><path class="a" d="M74.354 69.712l57.416-25.564.232.521-57.416 25.563zM74.118 69.171l57.416-25.563.232.52L74.35 69.692z"/><path class="a" d="M73.887 68.654l57.417-25.564.232.521-57.417 25.563zM73.643 68.127l57.416-25.563.232.52-57.417 25.564zM73.407 67.597l57.416-25.564.232.52L73.64 68.118zM73.172 67.07l57.416-25.563.232.52-57.416 25.564zM72.936 66.54l57.417-25.564.232.52L73.168 67.06zM72.702 66.013l57.416-25.564.232.521-57.417 25.563zM72.466 65.472l57.416-25.563.232.52-57.416 25.564zM72.231 64.946l57.416-25.564.232.52-57.416 25.564zM71.995 64.415l57.417-25.563.232.52-57.417 25.564z"/><path class="a" d="M71.765 63.898l57.416-25.564.232.52-57.417 25.564zM71.52 63.371l57.416-25.563.232.52-57.416 25.564zM128.71 37.27L71.29 62.83l.23.52 57.42-25.56-.23-.52zM71.05 62.304l57.416-25.564.231.521-57.416 25.563zM70.824 61.773L128.24 36.21l.232.52-57.417 25.564zM128 35.68L70.58 61.25l.23.52 57.42-25.57-.23-.52zM70.353 60.716l57.416-25.563.232.52-57.416 25.564zM127.53 34.63L70.11 60.19l.23.52 57.42-25.57-.23-.51z"/></g><path class="a" d="M86.29 83.49c-.13-7.93 2.43-14.83 7.78-22.5 5.63-8.06 19.13-12.22 29.61-7.8 4.88 2.06 10.35 6.63 16.59 20.81.05.12-.26.39-1.31-.78s-8.59-9.22-13.59-11.58c-5.77-2.73-15.68-1.88-21 1.3-5 3-11.27 9-11.66 20.55z"/><g class="f"><path class="a" d="M84.23 82.61l16.6-39.09-.56-.24-16.6 39.1.56.23z"/><path class="a" d="M84.209 82.608l16.594-39.094.552.234-16.594 39.094z"/><path class="a" d="M84.747 82.84l16.595-39.094.552.234L85.3 83.074z"/><path class="a" d="M85.28 83.063l16.594-39.094.553.234-16.595 39.094z"/><path class="a" d="M86.37 83.52l16.6-39.09-.56-.24-16.59 39.1.55.23z"/><path class="a" d="M86.91 83.75l16.59-39.1-.55-.23-16.6 39.1.56.23z"/><path class="a" d="M87.44 83.98l16.6-39.1-.56-.24-16.59 39.1.55.24z"/><path class="a" d="M87.424 83.968l16.594-39.094.553.235-16.595 39.094z"/><path class="a" d="M87.953 84.196l16.595-39.093.552.234L88.506 84.43z"/><path class="a" d="M88.496 84.43l16.595-39.095.552.235-16.595 39.094z"/><path class="a" d="M89.029 84.652l16.594-39.094.553.235L89.58 84.886z"/><path class="a" d="M89.558 84.88l16.595-39.094.552.235-16.594 39.093z"/><path class="a" d="M90.65 85.34l16.6-39.1-.56-.23L90.1 85.1l.55.24z"/><path class="a" d="M91.19 85.57l16.59-39.1-.55-.24-16.6 39.1.56.24z"/><path class="a" d="M91.169 85.567l16.594-39.094.552.234-16.594 39.094z"/><path class="a" d="M92.26 86.02l16.59-39.1-.55-.23-16.6 39.1.56.23z"/><path class="a" d="M92.235 86.009l16.594-39.094.553.234-16.595 39.094z"/><path class="a" d="M92.774 86.24l16.594-39.093.552.234-16.594 39.094z"/><path class="a" d="M93.303 86.469l16.595-39.094.552.234-16.594 39.094z"/><path class="a" d="M93.846 86.701l16.594-39.093.553.234-16.595 39.094z"/><path class="a" d="M94.93 87.16l16.6-39.1-.56-.24-16.59 39.1.55.24z"/><path class="a" d="M94.918 87.146l16.594-39.094.552.235L95.47 87.38z"/><path class="a" d="M95.451 87.375l16.595-39.094.552.235L96.003 87.61z"/><path class="a" d="M95.98 87.607l16.594-39.094.553.235-16.595 39.094z"/><path class="a" d="M96.519 87.84l16.594-39.095.552.235-16.594 39.094z"/><path class="a" d="M97.042 88.058l16.595-39.094.552.235-16.594 39.093z"/><path class="a" d="M98.14 88.52l16.6-39.1-.56-.23-16.59 39.09.55.24z"/><path class="a" d="M98.124 88.513l16.594-39.094.552.234-16.594 39.094z"/><path class="a" d="M98.653 88.745l16.594-39.094.552.234L99.205 88.98z"/><path class="a" d="M99.186 88.964L115.78 49.87l.553.234-16.595 39.094z"/><path class="a" d="M100.28 89.43l16.6-39.1-.56-.24-16.59 39.1.55.24z"/><path class="a" d="M100.268 89.418l16.594-39.093.552.234-16.594 39.094z"/><path class="a" d="M100.791 89.637l16.594-39.094.553.235-16.595 39.094z"/><path class="a" d="M101.33 89.88l16.594-39.094.553.234-16.595 39.094z"/><path class="a" d="M101.873 90.102l16.594-39.094.552.235-16.594 39.094z"/><path class="a" d="M102.401 90.324l16.595-39.094.552.235-16.594 39.094z"/><path class="a" d="M102.935 90.553l16.594-39.094.553.235-16.595 39.093z"/><path class="a" d="M104.03 91.02l16.59-39.1-.55-.23-16.6 39.09.56.24z"/><path class="a" d="M104.56 91.25l16.6-39.1-.56-.24-16.59 39.1.55.24z"/><path class="a" d="M104.536 91.236l16.594-39.094.553.235-16.595 39.093z"/><path class="a" d="M105.079 91.459l16.594-39.094.552.234-16.594 39.094z"/><path class="a" d="M106.17 91.93l16.59-39.1-.55-.24-16.6 39.1.56.24z"/><path class="a" d="M106.15 91.914l16.595-39.094.552.234-16.594 39.094z"/><path class="a" d="M106.68 92.142l16.594-39.094.553.234-16.595 39.094z"/><path class="a" d="M107.223 92.374l16.594-39.093.552.234-16.594 39.094z"/><path class="a" d="M108.31 92.83l16.6-39.09-.56-.24-16.6 39.1.56.23z"/><path class="a" d="M108.285 92.825l16.594-39.094.553.235-16.595 39.094z"/><path class="a" d="M108.824 93.057l16.594-39.094.552.235-16.594 39.094z"/><path class="a" d="M109.366 93.28l16.595-39.094.552.235-16.594 39.094z"/><path class="a" d="M109.886 93.508l16.594-39.094.553.235-16.595 39.094z"/><path class="a" d="M110.429 93.731l16.594-39.094.552.235-16.594 39.093z"/><path class="a" d="M111.52 94.2l16.59-39.1-.55-.24-16.6 39.1.56.24z"/><path class="a" d="M111.5 94.186l16.595-39.094.552.234-16.594 39.094z"/><path class="a" d="M112.59 94.65l16.59-39.1-.55-.23-16.6 39.1.56.23z"/><path class="a" d="M112.563 94.637l16.594-39.094.552.234-16.594 39.094z"/><path class="a" d="M113.101 94.869l16.595-39.094.552.234-16.594 39.094z"/><path class="a" d="M113.635 95.088l16.594-39.094.562.238-16.595 39.094z"/><path class="a" d="M114.174 95.33l16.594-39.094.552.234-16.594 39.094z"/><path class="a" d="M114.716 95.552l16.595-39.094.552.235-16.594 39.094z"/><path class="a" d="M115.245 95.784L131.84 56.69l.552.235-16.595 39.094z"/><path class="a" d="M115.779 96.003l16.594-39.094.552.235-16.594 39.094z"/><path class="a" d="M116.317 96.235l16.595-39.094.552.235L116.87 96.47z"/><path class="a" d="M117.4 96.69L134 57.6l-.56-.24-16.59 39.1.55.23z"/><path class="a" d="M117.94 96.92l16.59-39.09-.55-.24-16.6 39.1.56.23z"/><path class="a" d="M117.913 96.909l16.598-39.103.552.234-16.598 39.103z"/><path class="a" d="M119.01 97.38l16.59-39.1-.55-.23-16.6 39.09.56.24z"/><path class="a" d="M118.994 97.364l16.594-39.094.553.234-16.595 39.094z"/><path class="a" d="M119.514 97.592l16.594-39.094.552.234-16.594 39.094z"/><path class="a" d="M120.056 97.825l16.595-39.094.552.234-16.594 39.094z"/><path class="a" d="M120.595 98.057l16.594-39.094.553.234-16.595 39.094z"/><path class="a" d="M121.119 98.275l16.594-39.093.552.234-16.594 39.094z"/><path class="a" d="M121.657 98.507l16.595-39.093.552.234-16.594 39.094z"/><path class="a" d="M122.2 98.73l16.595-39.094.552.235-16.595 39.094z"/><path class="a" d="M123.29 99.19l16.59-39.09-.55-.24-16.6 39.1.56.23z"/><path class="a" d="M123.262 99.181l16.595-39.094.552.235-16.594 39.094z"/><path class="a" d="M124.36 99.65l16.59-39.1-.55-.24-16.6 39.1.56.24z"/><path class="a" d="M124.344 99.636l16.594-39.094.553.235-16.595 39.093z"/><path class="a" d="M124.864 99.864l16.594-39.094.552.235-16.594 39.094z"/><path class="a" d="M125.96 100.33l16.6-39.1L142 61l-16.59 39.1.55.23z"/><path class="a" d="M125.945 100.329l16.598-39.103.553.234-16.599 39.103z"/><path class="a" d="M126.488 100.552l16.594-39.094.552.234-16.594 39.094z"/><path class="a" d="M127.007 100.78l16.599-39.103.552.234-16.598 39.103z"/><path class="a" d="M127.55 101.003l16.594-39.094.553.234-16.595 39.094z"/><path class="a" d="M128.64 101.47l16.6-39.1-.56-.24-16.6 39.1.56.24z"/></g><path class="c" d="M74.37 91.42v44a2.17 2.17 0 0 1 .54-1c1.15-1.45 11.53-14.17 12.84-16.12 0 0 .52 1-.92-1.3s-8.52-14.43-9-22a22.62 22.62 0 0 1-.13-3.51z"/><g class="g"><path class="a" d="M74.34 91.44h13.53V92H74.34zM74.34 92.02h13.53v.56H74.34zM74.34 92.6h13.53v.56H74.34zM74.34 93.18h13.53v.56H74.34zM74.34 93.76h13.53v.56H74.34zM74.34 94.33h13.53v.56H74.34zM74.34 94.91h13.53v.56H74.34zM74.34 95.49h13.53v.56H74.34zM74.34 96.07h13.53v.56H74.34zM74.34 96.65h13.53v.56H74.34zM74.34 97.23h13.53v.56H74.34zM74.34 97.81h13.53v.56H74.34zM74.34 98.38h13.53v.56H74.34zM74.34 98.96h13.53v.56H74.34zM74.34 99.54h13.53v.56H74.34zM74.34 100.12h13.53v.56H74.34zM74.34 100.7h13.53v.56H74.34zM74.34 101.27h13.53v.56H74.34zM74.34 101.85h13.53v.56H74.34zM74.34 102.43h13.53v.56H74.34zM74.34 103.01h13.53v.56H74.34zM74.34 103.59h13.53v.56H74.34zM74.34 104.17h13.53v.56H74.34zM74.34 104.75h13.53v.56H74.34zM74.34 105.32h13.53v.56H74.34zM74.34 105.9h13.53v.56H74.34zM74.34 106.48h13.53v.56H74.34zM74.34 107.06h13.53v.56H74.34zM74.34 107.64h13.53v.56H74.34zM74.34 108.22h13.53v.56H74.34zM74.34 108.79h13.53v.56H74.34zM74.34 109.37h13.53v.56H74.34zM74.34 109.95h13.53v.56H74.34zM74.34 110.53h13.53v.56H74.34zM74.34 111.11h13.53v.56H74.34zM74.34 111.68h13.53v.56H74.34zM74.34 112.26h13.53v.56H74.34zM74.34 112.84h13.53v.56H74.34zM74.34 113.42h13.53v.56H74.34zM74.34 114h13.53v.56H74.34zM74.34 114.58h13.53v.56H74.34zM74.34 115.15h13.53v.56H74.34zM74.34 115.73h13.53v.56H74.34zM74.34 116.31h13.53v.56H74.34zM74.34 116.89h13.53v.56H74.34zM74.34 117.47h13.53v.56H74.34zM74.34 118.05h13.53v.56H74.34zM74.34 118.62h13.53v.56H74.34zM74.34 119.2h13.53v.56H74.34zM74.34 119.78h13.53v.56H74.34zM74.34 120.36h13.53v.56H74.34zM74.34 120.94h13.53v.56H74.34zM74.34 121.52h13.53v.56H74.34zM74.34 122.09h13.53v.56H74.34zM74.34 122.67h13.53v.56H74.34zM74.34 123.25h13.53v.56H74.34zM74.34 123.83h13.53v.56H74.34zM74.34 124.41h13.53v.56H74.34zM74.34 124.99h13.53v.56H74.34zM74.34 125.56h13.53v.56H74.34zM74.34 126.14h13.53v.56H74.34zM74.34 126.72h13.53v.56H74.34zM74.34 127.3h13.53v.56H74.34zM74.34 127.88h13.53v.56H74.34zM74.34 128.46h13.53v.56H74.34zM74.34 129.04h13.53v.56H74.34zM74.34 129.61h13.53v.56H74.34zM74.34 130.19h13.53v.56H74.34zM74.34 130.77h13.53v.56H74.34zM74.34 131.35h13.53v.56H74.34zM74.34 131.93h13.53v.56H74.34zM74.34 132.51h13.53v.56H74.34zM74.34 133.08h13.53v.56H74.34zM74.34 133.66h13.53v.56H74.34zM74.34 134.24h13.53v.56H74.34zM74.34 134.82h13.53v.56H74.34z"/></g><path class="c" d="M80.52 91.42c.79 14.43 9.7 24.06 15.59 26.4 5.7 2.26 17.69 4.81 24.9-9.75a28 28 0 0 1-2.62 3.12c-1.83 2-13.5 8.58-22.41 1-3.79-3.21-9-7.8-10-20.81 0 0-5.51-.13-5.5 0z"/><g class="h"><path class="a" d="M88.04 82.12l.364-.45 33.114 26.815-.365.45zM87.68 82.58l.365-.451 33.114 26.815-.365.451zM87.307 83.03l.365-.45 33.114 26.815-.365.45z"/><path class="a" d="M86.95 83.48l33.11 26.82.36-.46-33.11-26.81-.36.45zM86.585 83.94l.365-.45 33.106 26.809-.365.45zM86.212 84.391l.365-.45 33.114 26.815-.365.45zM85.838 84.842l.365-.45 33.115 26.815-.365.45z"/><path class="a" d="M85.48 85.3l33.11 26.81.36-.45-33.11-26.82-.36.46zM85.116 85.752l.365-.45 33.114 26.815-.365.45zM84.743 86.203l.365-.451 33.114 26.815-.365.451z"/><path class="a" d="M84.38 86.65l33.11 26.82.36-.45L84.74 86.2l-.36.45z"/><path class="a" d="M84.013 87.106l.365-.45 33.107 26.809-.365.45zM83.648 87.563l.365-.45 33.106 26.809-.365.45zM83.28 88.016l.366-.45 33.106 26.809-.365.45zM82.91 88.47l33.11 26.81.37-.45-33.11-26.81-.37.45zM82.542 88.924l.365-.45 33.115 26.815-.365.45z"/><path class="a" d="M82.18 89.37l33.11 26.81.36-.45-33.11-26.81-.36.45zM81.812 89.818l.365-.45 33.107 26.808-.365.45zM81.447 90.285l.365-.45 33.114 26.814-.365.451z"/><path class="a" d="M81.08 90.728l.365-.45 33.107 26.808-.365.45zM80.707 91.179l.365-.451 33.107 26.809-.365.45z"/><path class="a" d="M80.344 91.63l.365-.451 33.106 26.809-.365.45zM79.985 92.089l.365-.451 33.106 26.809-.365.45zM79.612 92.54l.365-.451 33.114 26.815-.365.45zM79.239 93l.365-.45 33.114 26.815-.365.45z"/><path class="a" d="M78.872 93.433l.365-.45 33.114 26.815-.365.45zM78.516 93.9l.365-.45 33.107 26.808-.365.451zM78.143 94.35l.365-.45 33.114 26.815-.365.451z"/><path class="a" d="M77.776 94.794l.365-.451 33.115 26.815-.365.451zM77.411 95.26l.365-.45 33.114 26.815-.365.451zM77.038 95.712l.365-.451 33.106 26.809-.365.45z"/><path class="a" d="M76.681 96.164l.365-.45 33.107 26.809-.365.45zM76.316 96.622l.365-.451 33.114 26.815-.365.45zM75.943 97.072l.365-.45 33.114 26.815-.365.45zM75.57 97.523l.365-.45 33.106 26.808-.365.451z"/><path class="a" d="M75.526 97.79l.365-.453 33.236 26.844-.366.453zM74.847 98.433l.365-.45 33.114 26.815-.365.45z"/><path class="a" d="M74.48 98.876l.365-.45 33.107 26.808-.365.451zM74.11 99.33l33.11 26.81.37-.44-33.12-26.81-.36.44zM73.742 99.794l.365-.451 33.106 26.809-.365.45z"/><path class="a" d="M73.379 100.244l.365-.45 33.114 26.815-.365.45z"/></g><path class="c" d="M91.92 91.42c-.66 9.23 4.65 15 7.08 17.81 4.32 4.94 15.72 2.47 17.16 1.82a48.57 48.57 0 0 0 4.81-3 15.88 15.88 0 0 1-2.46 3.19c-1.83 2-13.66 8.52-22.57 1-3.79-3.21-9-7.8-10-20.81z"/><g class="i"><path class="a" d="M80.796 96.003l16.193-14.58.435.483-16.193 14.58z"/><path class="a" d="M81.184 96.441l16.193-14.58.435.483-16.193 14.58z"/><path class="a" d="M81.571 96.87l16.194-14.58.434.483-16.193 14.58z"/><path class="a" d="M81.952 97.295l16.193-14.58.435.483-16.194 14.58z"/><path class="a" d="M82.34 97.734l16.192-14.58.435.483-16.193 14.58z"/><path class="a" d="M83.17 98.64l16.19-14.58-.44-.49-16.19 14.58.44.49z"/><path class="a" d="M83.114 98.581l16.193-14.58.435.483-16.193 14.58z"/><path class="a" d="M83.94 99.5l16.2-14.58-.44-.48-16.2 14.58.44.48z"/><path class="a" d="M84.33 99.93l16.19-14.58-.43-.48-16.2 14.58.44.48z"/><path class="a" d="M84.28 99.874l16.193-14.58.434.482-16.193 14.58z"/><path class="a" d="M84.667 100.292l16.193-14.58.435.483-16.193 14.58z"/><path class="a" d="M85.054 100.73l16.194-14.58.435.483-16.194 14.58z"/><path class="a" d="M85.441 101.163l16.193-14.58.435.483-16.193 14.58z"/><path class="a" d="M85.829 101.612l16.193-14.58.435.483-16.193 14.58z"/><path class="a" d="M86.66 102.51l16.19-14.58-.43-.48-16.2 14.58.44.48z"/><path class="a" d="M86.614 102.47l16.193-14.581.435.483-16.193 14.58z"/><path class="a" d="M87.43 103.38l16.2-14.59-.44-.48L87 102.89l.43.49z"/><path class="a" d="M87.382 103.323l16.193-14.58.435.483-16.193 14.58z"/><path class="a" d="M88.21 104.24l16.19-14.59-.43-.48-16.2 14.59.44.48z"/><path class="a" d="M88.59 104.67l16.2-14.59-.44-.48-16.19 14.59.43.48z"/><path class="a" d="M88.554 104.599l16.193-14.58.435.483-16.193 14.58z"/><path class="a" d="M88.934 105.034l16.194-14.58.434.483-16.193 14.58z"/><path class="a" d="M89.322 105.473l16.193-14.58.435.482-16.193 14.58z"/><path class="a" d="M89.713 105.9l16.19-14.584.436.483-16.19 14.584z"/><path class="a" d="M90.097 106.34l16.193-14.58.435.483-16.193 14.58z"/><path class="a" d="M90.491 106.766l16.193-14.58.435.483-16.193 14.58z"/><path class="a" d="M91.31 107.68L107.5 93.1l-.43-.48-16.19 14.58.43.48z"/><path class="a" d="M91.259 107.63l16.193-14.58.435.483-16.193 14.58z"/><path class="a" d="M92.08 108.54l16.2-14.58-.44-.48-16.19 14.58.43.48z"/><path class="a" d="M92.044 108.487l16.193-14.58.435.483-16.193 14.58z"/><path class="a" d="M92.424 108.932l16.193-14.58.435.483-16.193 14.58z"/><path class="a" d="M93.25 109.83l16.19-14.58-.43-.48-16.2 14.58.44.48z"/><path class="a" d="M93.203 109.777l16.19-14.583.436.483-16.191 14.583z"/><path class="a" d="M93.587 110.198l16.193-14.58.435.483-16.193 14.58z"/><path class="a" d="M94.41 111.13l16.2-14.58-.44-.49-16.19 14.58.43.49z"/><path class="a" d="M94.8 111.56l16.19-14.58-.43-.49-16.2 14.59.44.48z"/><path class="a" d="M95.19 111.99l16.19-14.58-.43-.48-16.2 14.58.44.48z"/><path class="a" d="M95.58 112.42l16.19-14.58-.43-.48-16.2 14.58.44.48z"/><path class="a" d="M95.534 112.365l16.193-14.58.435.483-16.193 14.58z"/><path class="a" d="M96.35 113.28l16.2-14.58-.44-.48-16.19 14.58.43.48z"/><path class="a" d="M96.302 113.229l16.193-14.58.435.483-16.193 14.58z"/><path class="a" d="M96.69 113.668l16.192-14.58.435.482-16.193 14.58z"/><path class="a" d="M97.51 114.58l16.2-14.59-.44-.48-16.19 14.58.43.49z"/><path class="a" d="M97.474 114.525l16.193-14.58.435.482-16.193 14.58z"/><path class="a" d="M97.854 114.95l16.193-14.58.435.483-16.193 14.58z"/><path class="a" d="M98.242 115.379l16.193-14.58.435.482-16.193 14.58z"/><path class="a" d="M98.63 115.817l16.193-14.58.435.483-16.194 14.58z"/><path class="a" d="M99.45 116.73l16.2-14.59-.44-.48-16.19 14.59.43.48z"/><path class="a" d="M99.405 116.674l16.193-14.58.435.483-16.193 14.58z"/><path class="a" d="M99.795 117.1l16.193-14.58.435.482-16.193 14.58z"/><path class="a" d="M100.182 117.538l16.193-14.58.435.483-16.193 14.58z"/><path class="a" d="M100.57 117.967l16.193-14.58.435.483-16.193 14.58z"/><path class="a" d="M100.964 118.403l16.193-14.58.435.483-16.193 14.58z"/><path class="a" d="M101.344 118.838l16.193-14.58.435.483-16.193 14.58z"/><path class="a" d="M101.732 119.277l16.193-14.58.435.482-16.193 14.58z"/><path class="a" d="M102.12 119.705l16.192-14.58.435.483-16.193 14.58z"/><path class="a" d="M102.513 120.129l16.196-14.578.434.484-16.195 14.577z"/><path class="a" d="M102.897 120.57l16.193-14.581.435.483-16.193 14.58z"/><path class="a" d="M103.72 121.47l16.2-14.58-.44-.49-16.2 14.58.44.49z"/><path class="a" d="M103.672 121.416l16.193-14.58.435.483-16.193 14.58z"/><path class="a" d="M104.5 122.33l16.19-14.59-.44-.48-16.19 14.59.44.48z"/><path class="a" d="M104.447 122.274l16.193-14.58.435.482-16.193 14.58z"/><path class="a" d="M104.827 122.719l16.193-14.58.435.483-16.193 14.58z"/></g><path class="a" d="M74.37 83.52V0s-.15.39-.67 1.43-6.68 12.74-8.25 20.16-3 11.31-2.88 18.6a72.87 72.87 0 0 0 3.67 22c2.49 7.54 4.72 13.39 5 16.38s.26 4.94.26 4.94z"/><g class="j"><path class="a" d="M73.495 84.611l37.976-62.805.516.312L74.01 84.923zM110.22 21.59l-37.61 62.6.51.3 37.62-62.6-.52-.3z"/><path class="a" d="M72.111 83.89l37.613-62.599.514.31-37.613 62.598z"/><path class="a" d="M109.23 20.99l-37.61 62.6.51.3 37.61-62.59-.51-.31z"/><path class="a" d="M71.117 83.28L108.73 20.68l.514.309-37.613 62.599z"/><path class="a" d="M70.622 82.984l37.613-62.599.515.31-37.614 62.598z"/><path class="a" d="M70.126 82.693l37.613-62.599.515.31L70.64 83.001z"/><path class="a" d="M69.631 82.397l37.614-62.599.514.31-37.613 62.598z"/><path class="a" d="M106.74 19.49l-37.61 62.6.51.31 37.61-62.6-.51-.31z"/><path class="a" d="M68.637 81.787l37.613-62.6.515.31L69.15 82.096z"/><path class="a" d="M68.132 81.49l37.614-62.598.514.309L68.647 81.8z"/><path class="a" d="M67.638 81.195l37.613-62.599.514.31-37.613 62.598z"/><path class="a" d="M67.133 80.9l37.613-62.6.515.31-37.614 62.598z"/><path class="a" d="M66.638 80.593l37.614-62.599.514.31-37.613 62.598z"/><path class="a" d="M66.477 80.417l37.976-62.806.516.312-37.976 62.806zM65.644 79.993l37.614-62.6.514.31-37.613 62.599z"/><path class="a" d="M102.76 17.1L65.14 79.7l.52.3 37.61-62.59-.51-.31z"/><path class="a" d="M64.973 79.529l37.976-62.806.516.312-37.976 62.806zM64.14 79.105l37.614-62.599.514.309-37.613 62.599z"/><path class="a" d="M63.65 78.79l37.614-62.599.514.31-37.613 62.598z"/><path class="a" d="M100.76 15.9L63.15 78.5l.51.31 37.61-62.6-.51-.31z"/><path class="a" d="M62.965 78.331l37.976-62.805.516.312L63.48 78.643zM62.155 77.908l37.614-62.6.514.31L62.67 78.217z"/><path class="a" d="M61.66 77.602l37.614-62.6.514.31L62.175 77.91z"/><path class="a" d="M61.161 77.297l37.613-62.599.515.31-37.614 62.598z"/><path class="a" d="M60.666 77.001L98.28 14.402l.514.31L61.181 77.31z"/><path class="a" d="M60.162 76.705l37.613-62.598.514.309-37.613 62.599z"/><path class="a" d="M59.667 76.4L97.28 13.8l.515.31L60.18 76.709z"/><path class="a" d="M59.162 76.104l37.614-62.6.514.31-37.613 62.599z"/><path class="a" d="M58.956 75.935l37.976-62.806.516.312-37.976 62.806zM95.78 12.91l-37.61 62.6.51.3 37.61-62.59-.51-.31z"/><path class="a" d="M95.28 12.61l-37.61 62.6.51.31L95.8 12.91l-.52-.3z"/><path class="a" d="M94.79 12.31l-37.62 62.6.51.31 37.62-62.6-.51-.31z"/><path class="a" d="M94.29 12.01l-37.62 62.6.52.3L94.8 12.32l-.51-.31z"/><path class="a" d="M93.79 11.71l-37.61 62.6.51.3L94.3 12.02l-.51-.31z"/><path class="a" d="M55.689 74.01l37.613-62.599.514.31-37.613 62.598z"/><path class="a" d="M55.184 73.714l37.613-62.599.515.31-37.614 62.598z"/><path class="a" d="M54.69 73.408L92.302 10.81l.514.31-37.613 62.598z"/><path class="a" d="M91.8 10.51l-37.62 62.6.52.31 37.61-62.6-.51-.31z"/><path class="a" d="M53.69 72.816l37.613-62.598.515.309-37.614 62.598z"/><path class="a" d="M53.19 72.512L90.804 9.913l.514.309-37.613 62.599z"/><path class="a" d="M90.3 9.62L52.69 72.21l.51.31 37.61-62.6-.51-.3z"/><path class="a" d="M52.191 71.91L89.804 9.311l.515.31-37.614 62.598z"/><path class="a" d="M51.696 71.614L89.31 9.015l.514.31-37.613 62.598z"/><path class="a" d="M51.192 71.318L88.805 8.72l.514.31-37.613 62.598z"/><path class="a" d="M50.692 71.014l37.613-62.6.515.31-37.613 62.599z"/><path class="a" d="M50.198 70.718l37.613-62.6.514.31-37.613 62.599z"/><path class="a" d="M49.703 70.412L87.316 7.813l.514.309-37.613 62.599z"/><path class="a" d="M49.207 70.121L86.82 7.522l.514.31L49.721 70.43z"/><path class="a" d="M48.712 69.825L86.325 7.226l.515.31-37.614 62.598z"/><path class="a" d="M85.82 6.92l-37.61 62.6.51.31 37.61-62.6-.51-.31z"/><path class="a" d="M85.32 6.62l-37.61 62.6.51.31 37.61-62.6-.51-.31z"/><path class="a" d="M47.213 68.919l37.614-62.6.514.31-37.613 62.599z"/><path class="a" d="M46.719 68.623L84.332 6.024l.514.309-37.613 62.599z"/><path class="a" d="M83.83 5.72l-37.62 62.6.52.31 37.61-62.6-.51-.31z"/><path class="a" d="M45.71 68.031L83.322 5.432l.514.31L46.224 68.34z"/><path class="a" d="M82.83 5.13L45.22 67.72l.51.31 37.61-62.6-.51-.3z"/><path class="a" d="M44.715 67.42L82.328 4.823l.515.309L45.229 67.73z"/><path class="a" d="M81.83 4.53l-37.61 62.6.51.31L82.35 4.83l-.52-.3z"/><path class="a" d="M43.716 66.829l37.613-62.6.514.31L44.23 67.138z"/><path class="a" d="M43.221 66.533l37.613-62.6.515.31-37.614 62.599z"/><path class="a" d="M42.722 66.218L80.335 3.62l.514.31-37.613 62.598z"/><path class="a" d="M42.227 65.922L79.84 3.323l.514.31L42.741 66.23z"/><path class="a" d="M41.74 65.632l37.614-62.6.514.31L42.255 65.94z"/><path class="a" d="M41.236 65.336l37.613-62.6.515.31L41.75 65.645z"/><path class="a" d="M40.741 65.04l37.614-62.6.514.31-37.613 62.599z"/><path class="a" d="M40.242 64.725L77.855 2.126l.514.31-37.613 62.598z"/><path class="a" d="M39.737 64.43l37.614-62.6.514.31-37.613 62.598z"/><path class="a" d="M39.243 64.133L76.856 1.534l.514.31-37.613 62.598z"/><path class="a" d="M38.748 63.837L76.36 1.24l.514.309-37.613 62.599z"/><path class="a" d="M38.243 63.542L75.857.942l.514.31L38.758 63.85z"/><path class="a" d="M37.744 63.227L75.357.628l.514.31-37.613 62.598z"/><path class="a" d="M74.86.34l-37.61 62.6.51.3L75.37.65l-.51-.31z"/><path class="a" d="M74.36.04l-37.61 62.6.51.3L74.88.34l-.52-.3z"/></g><path class="a" d="M68.19 83.52C67.8 78.58 65.6 67 61.77 59.6c-4.32-8.32-11.88-13.4-21.23-15.48C29.37 41.65 5.95 47.37 8.57 74c0 .29 1.9-3.1 4.45-7.67 3.28-5.85 7.6-12.23 15.59-13.92 9-1.9 18.34.65 23.06 5.85s9.83 11.18 10.75 25.23z"/><g class="k"><path class="a" d="M33.59 108.159l41.982-30.58.366.502-41.982 30.58zM74.95 77.18l-41.93 30.47.37.49 41.93-30.46-.37-.5z"/><path class="a" d="M32.688 107.18l41.931-30.466.365.502-41.932 30.465z"/><path class="a" d="M74.27 76.25l-41.93 30.46.36.5 41.94-30.46-.37-.5z"/><path class="a" d="M31.997 106.234L73.928 75.77l.365.501-41.931 30.465z"/><path class="a" d="M31.656 105.774L73.587 75.31l.365.502-41.932 30.465z"/><path class="a" d="M73.25 74.84L31.32 105.3l.36.5 41.93-30.46-.36-.5z"/><path class="a" d="M30.973 104.833l41.932-30.465.364.502-41.931 30.465z"/><path class="a" d="M72.57 73.9l-41.93 30.46.36.51L72.93 74.4l-.36-.5z"/><path class="a" d="M30.296 103.9l41.932-30.464.364.501-41.931 30.465z"/><path class="a" d="M29.955 103.43l41.931-30.465.365.502-41.932 30.465z"/><path class="a" d="M29.614 102.96l41.931-30.465.365.501-41.932 30.465z"/><path class="a" d="M29.272 102.49l41.932-30.465.364.501-41.931 30.465z"/><path class="a" d="M28.931 102.019l41.931-30.465.365.502-41.931 30.465z"/><path class="a" d="M28.59 101.549L70.52 71.084l.365.501-41.932 30.465z"/><path class="a" d="M28.258 101.078L70.19 70.613l.364.502-41.931 30.465z"/><path class="a" d="M27.923 100.616l41.931-30.465.365.502-41.932 30.465z"/><path class="a" d="M69.5 69.69l-41.93 30.46.37.5 41.93-30.46-.37-.5z"/><path class="a" d="M27.24 99.675L69.172 69.21l.364.502-41.931 30.465z"/><path class="a" d="M68.82 68.75L26.89 99.21l.37.5 41.93-30.46-.37-.5z"/><path class="a" d="M26.558 98.744L68.489 68.28l.364.502-41.93 30.465z"/><path class="a" d="M68.14 67.81L26.21 98.28l.37.49 41.93-30.46-.37-.5z"/><path class="a" d="M25.88 97.802l41.932-30.465.365.501-41.932 30.465z"/><path class="a" d="M25.54 97.341l41.93-30.465.365.502-41.931 30.465z"/><path class="a" d="M25.198 96.87L67.13 66.407l.364.502-41.931 30.465z"/><path class="a" d="M24.857 96.4l41.931-30.464.365.501L25.22 96.902z"/><path class="a" d="M66.44 65.47L24.51 95.93l.37.5 41.93-30.46-.37-.5z"/><path class="a" d="M24.166 95.466L66.098 65l.364.501-41.931 30.465z"/><path class="a" d="M23.825 94.995L65.756 64.53l.365.502-41.932 30.465z"/><path class="a" d="M23.49 94.533l41.93-30.465.365.502-41.931 30.465z"/><path class="a" d="M23.148 94.063L65.08 63.598l.365.501-41.931 30.465z"/><path class="a" d="M22.807 93.592l41.931-30.465.365.502L23.17 94.094z"/><path class="a" d="M64.4 62.66L22.47 93.12l.36.5 41.93-30.46-.36-.5z"/><path class="a" d="M64.06 62.19L22.13 92.65l.36.5 41.93-30.46-.36-.5z"/><path class="a" d="M63.72 61.72L21.79 92.18l.36.51 41.93-30.47-.36-.5z"/><path class="a" d="M21.441 91.71l41.932-30.464.364.501-41.931 30.465z"/><path class="a" d="M21.1 91.24l41.932-30.465.364.502-41.931 30.465z"/><path class="a" d="M20.765 90.778l41.931-30.465.364.502-41.93 30.464z"/><path class="a" d="M20.423 90.308l41.932-30.465.364.501L20.788 90.81z"/><path class="a" d="M62.01 59.38L20.09 89.84l.36.5 41.93-30.46-.37-.5z"/><path class="a" d="M19.74 89.367l41.932-30.465.365.501-41.932 30.465z"/><path class="a" d="M61.33 58.44L19.4 88.9l.37.5L61.7 58.94l-.37-.5z"/><path class="a" d="M60.99 57.97L19.07 88.44l.36.5 41.93-30.47-.37-.5z"/><path class="a" d="M18.727 87.966L60.658 57.5l.365.501L19.09 88.467z"/><path class="a" d="M18.556 87.553l41.983-30.58.365.502-41.982 30.58zM59.97 56.56L18.04 87.03l.37.5 41.93-30.46-.37-.51z"/><path class="a" d="M17.709 86.562L59.64 56.098l.364.501-41.93 30.465z"/><path class="a" d="M17.367 86.092L59.3 55.627l.364.502-41.931 30.465z"/><path class="a" d="M17.026 85.622l41.931-30.465.365.501L17.39 86.123z"/><path class="a" d="M58.61 54.69L16.68 85.15l.37.51 41.93-30.47-.37-.5z"/><path class="a" d="M58.27 54.22L16.34 84.69l.37.5 41.92-30.47-.36-.5z"/><path class="a" d="M16 84.224L57.93 53.76l.365.501-41.932 30.465z"/><path class="a" d="M15.659 83.754l41.93-30.465.365.502-41.931 30.465z"/><path class="a" d="M15.317 83.284L57.25 52.819l.364.501-41.931 30.465z"/><path class="a" d="M14.976 82.813l41.931-30.465.365.502L15.34 83.315z"/><path class="a" d="M14.635 82.343l41.93-30.465.365.502L15 82.845z"/><path class="a" d="M14.293 81.873l41.932-30.465.364.501-41.931 30.465z"/><path class="a" d="M13.958 81.41l41.931-30.465.365.502-41.932 30.465z"/><path class="a" d="M13.616 80.94l41.932-30.465.364.502L13.981 81.44z"/><path class="a" d="M13.275 80.47l41.931-30.465.365.501L13.64 80.971z"/><path class="a" d="M54.87 49.54L12.94 80l.36.5 41.93-30.46-.36-.5z"/><path class="a" d="M12.592 79.529l41.932-30.465.364.501L12.957 80.03z"/><path class="a" d="M12.251 79.058l41.931-30.465.365.502L12.616 79.56z"/><path class="a" d="M11.91 78.588L53.84 48.123l.365.502-41.932 30.464z"/><path class="a" d="M11.568 78.117L53.5 47.653l.364.501L11.933 78.62z"/><path class="a" d="M11.243 77.655L53.174 47.19l.365.502-41.932 30.465z"/><path class="a" d="M10.902 77.185L52.833 46.72l.364.501-41.93 30.465z"/><path class="a" d="M52.48 46.26L10.55 76.72l.37.5 41.93-30.46-.37-.5z"/><path class="a" d="M10.22 76.254l41.93-30.465.365.502-41.932 30.465z"/><path class="a" d="M9.878 75.784l41.931-30.465.365.501-41.932 30.465z"/><path class="a" d="M9.536 75.313l41.932-30.465.364.502L9.901 75.815z"/><path class="a" d="M9.201 74.85l41.931-30.464.365.502L9.565 75.353z"/><path class="a" d="M8.86 74.38L50.79 43.917l.364.501-41.93 30.465z"/><path class="a" d="M8.51 73.916l41.932-30.465.364.502L8.875 74.418z"/><path class="a" d="M8.169 73.446L50.1 42.98l.365.501L8.533 73.947z"/><path class="a" d="M7.828 72.975l41.93-30.465.365.502L8.192 73.477z"/><path class="a" d="M7.486 72.505L49.418 42.04l.364.502L7.851 73.006z"/><path class="a" d="M7.145 72.034L49.076 41.57l.365.501L7.509 72.536z"/><path class="a" d="M6.81 71.572l41.93-30.465.365.502L7.174 72.074z"/><path class="a" d="M48.4 40.63L6.47 71.1l.36.5 41.93-30.46-.36-.51z"/><path class="a" d="M6.127 70.631l41.931-30.465.365.502L6.49 71.133z"/><path class="a" d="M5.786 70.161l41.93-30.465.365.502L6.15 70.663z"/><path class="a" d="M5.444 69.69l41.932-30.464.364.501L5.809 70.192z"/><path class="a" d="M5.103 69.22l41.931-30.465.365.502L5.467 69.722z"/><path class="a" d="M4.762 68.75l41.93-30.465.365.501L5.126 69.251z"/><path class="a" d="M4.426 68.288l41.931-30.465.365.501L4.79 68.79z"/><path class="a" d="M4.085 67.817l41.931-30.465.365.502L4.449 68.319z"/><path class="a" d="M3.743 67.347l41.932-30.465.364.501L4.108 67.848z"/><path class="a" d="M3.402 66.876l41.931-30.465.365.502L3.767 67.378z"/><path class="a" d="M44.99 35.95L3.06 66.41l.37.5 41.93-30.46-.37-.5z"/><path class="a" d="M2.73 65.936L44.66 35.47l.365.501L3.094 66.437z"/><path class="a" d="M2.388 65.465L44.32 35l.365.502L2.753 65.967z"/><path class="a" d="M2.053 65.003l41.931-30.465.364.502-41.93 30.464z"/><path class="a" d="M1.711 64.532l41.932-30.464.364.501L2.076 65.034z"/><path class="a" d="M1.466 64.146l41.983-30.58.366.503-41.983 30.58zM1.02 63.608l41.932-30.465.364.501L1.385 64.11z"/><path class="a" d="M.68 63.137l41.93-30.465.365.502L1.044 63.639z"/><path class="a" d="M.338 62.667l41.931-30.465.365.501L.702 63.168z"/><path class="a" d="M-.003 62.196l41.931-30.465.364.502L.362 62.698z"/></g><path class="a" d="M62.43 83.52c.13-7.93-2.63-15.23-8-22.89s-18.73-11.7-29.22-7.28C20.37 55.41 15.25 59.08 8.44 74c-.05.12.26.39 1.31-.78s8.62-9.17 13.62-11.54c5.76-2.73 15.67-1.88 21 1.3 5 3 11.27 9 11.66 20.55z"/><g class="l"><path class="a" d="M8.437 74.119l7.661-28.592.55.148-7.66 28.591zM9.54 74.42l7.66-28.59-.55-.14-7.66 28.58.55.15zM9.557 74.424l7.661-28.591.55.148-7.66 28.59zM10.117 74.572l7.66-28.591.551.147-7.66 28.592zM10.912 74.835l7.696-28.711.553.148-7.696 28.712z"/><path class="a" d="M11.78 75.02l7.66-28.59-.54-.14-7.66 28.58.54.15zM11.796 75.026l7.659-28.582.55.148-7.658 28.582zM12.595 75.283l7.696-28.712.553.148-7.696 28.712zM13.159 75.419l7.696-28.712.553.148-7.696 28.712z"/><path class="a" d="M13.478 75.47l7.659-28.582.55.148-7.658 28.582zM14.038 75.628l7.659-28.582.55.148-7.658 28.581zM14.598 75.776l7.658-28.582.551.148-7.658 28.581zM15.158 75.924l7.658-28.582.55.148-7.658 28.581zM15.718 76.082L23.376 47.5l.55.147-7.658 28.582zM16.277 76.23l7.659-28.582.55.147-7.658 28.582zM16.847 76.377l7.659-28.581.55.147-7.658 28.582zM17.41 76.526l7.658-28.582.55.148-7.658 28.581zM17.98 76.676l7.658-28.582.55.148-7.658 28.582zM18.539 76.824L26.2 48.233l.55.147-7.66 28.592zM19.099 76.982L26.757 48.4l.55.148L19.65 77.13zM19.659 77.13l7.66-28.591.551.147-7.66 28.591zM20.218 77.278l7.659-28.582.55.148-7.658 28.581zM20.778 77.436l7.659-28.582.55.148-7.658 28.581zM21.338 77.584l7.659-28.582.55.147-7.658 28.582zM21.9 77.722L29.56 49.14l.55.148-7.658 28.581zM22.46 77.88l7.659-28.582.55.148-7.658 28.581zM23.57 78.18l7.66-28.59-.55-.14-7.66 28.58.55.15zM24.13 78.33l7.66-28.59-.55-.15-7.66 28.59.55.15zM24.14 78.334l7.658-28.582.55.147-7.658 28.582zM25.25 78.63l7.66-28.59-.55-.14-7.66 28.58.55.15zM25.27 78.63l7.658-28.582.55.147-7.658 28.582zM25.83 78.787l7.658-28.582.55.148-7.658 28.582zM26.93 79.08l7.66-28.59-.54-.14-7.66 28.58.54.15zM26.952 79.083l7.658-28.581.55.147-7.658 28.582zM27.785 79.273l7.694-28.702.552.148-7.693 28.703z"/><path class="a" d="M28.071 79.38l7.659-28.583.55.148-7.658 28.582zM28.631 79.537l7.659-28.582.55.148-7.658 28.582zM29.19 79.685l7.66-28.582.55.148-7.659 28.582zM30.03 79.867l7.693-28.703.553.148-7.694 28.703z"/><path class="a" d="M30.86 80.13l7.66-28.58-.54-.15-7.66 28.59.54.14zM31.42 80.28l7.66-28.58-.54-.15-7.66 28.59.54.14zM31.98 80.43l7.66-28.58-.54-.15-7.66 28.59.54.14zM31.993 80.435l7.658-28.582.55.148-7.658 28.581zM33.11 80.73l7.66-28.58-.55-.15-7.66 28.59.55.14zM33.122 80.73l7.659-28.581.55.147-7.658 28.582zM33.692 80.891L41.35 52.31l.55.148-7.658 28.582zM34.252 81.04l7.66-28.592.551.147-7.66 28.592zM34.811 81.187l7.661-28.591.551.147-7.661 28.591zM35.91 81.48l7.66-28.58-.54-.15-7.66 28.59.54.14zM36.47 81.64l7.66-28.59-.54-.15-7.66 28.59.54.15zM37.04 81.79L44.7 53.2l-.55-.15-7.66 28.59.55.15zM37.6 81.94l7.66-28.59-.55-.15-7.66 28.59.55.15zM37.613 81.937l7.659-28.582.55.148-7.658 28.581zM38.173 82.085l7.661-28.592.55.148-7.66 28.591zM38.733 82.243l7.66-28.592.551.148-7.66 28.591zM39.84 82.54l7.66-28.59-.55-.14-7.65 28.58.54.15zM39.852 82.538l7.661-28.591.551.148-7.661 28.591zM40.412 82.696l7.661-28.591.55.147-7.66 28.592zM40.982 82.844l7.661-28.591.55.147-7.66 28.592zM42.09 83.14l7.66-28.59-.55-.14-7.66 28.58.55.15zM42.65 83.29l7.66-28.59-.55-.14-7.66 28.58.55.15zM43.21 83.44l7.66-28.59-.55-.14-7.66 28.58.55.15zM43.77 83.59L51.43 55l-.55-.14-7.66 28.58.55.15zM44.33 83.74l7.66-28.59-.55-.14-7.66 28.58.55.15zM44.344 83.752l7.66-28.591.551.147-7.66 28.592zM45.45 84.04l7.66-28.58-.54-.15-7.66 28.58.54.15zM45.463 84.048l7.661-28.592.55.148-7.66 28.591zM46.58 84.34l7.65-28.58-.54-.15-7.66 28.59.55.14zM47.14 84.49l7.66-28.58-.55-.15-7.66 28.59.55.14zM47.145 84.492l7.659-28.582.55.148-7.658 28.581zM47.705 84.65l7.661-28.592.55.148-7.66 28.591zM48.265 84.798l7.658-28.582.551.147-7.658 28.582zM48.825 84.946l7.658-28.582.55.147-7.658 28.582zM49.404 85.106l7.661-28.591.551.147-7.661 28.592zM49.964 85.254l7.661-28.591.55.147-7.66 28.592zM50.524 85.402l7.661-28.592.55.148-7.66 28.591zM51.086 85.54l7.659-28.582.55.148-7.658 28.582zM52.19 85.85l7.66-28.59-.55-.15-7.66 28.59.55.15zM52.536 85.805l7.696-28.712.553.148-7.696 28.712z"/><path class="a" d="M52.766 85.994l7.658-28.582.55.148-7.658 28.581zM53.87 86.3l7.66-28.59-.55-.15-7.66 28.59.55.15zM53.886 86.31l7.66-28.592.542.145-7.662 28.592zM54.78 86.398l7.694-28.702.543.146-7.694 28.702z"/><path class="a" d="M55.55 86.75l7.66-28.59-.54-.14-7.66 28.58.54.15zM55.565 86.753l7.658-28.581.541.145-7.658 28.581zM56.68 87.05l7.66-28.59-.55-.14-7.66 28.58.55.15zM56.687 87.05l7.659-28.582.55.147-7.658 28.582zM57.257 87.197l7.659-28.581.55.147-7.658 28.582z"/><path class="a" d="M57.807 87.345l7.661-28.591.55.147-7.66 28.592zM58.377 87.503l7.658-28.581.55.147-7.658 28.582zM58.937 87.661l7.658-28.582.55.148-7.658 28.582zM59.496 87.81l7.659-28.583.55.148-7.658 28.582zM60.056 87.957l7.659-28.582.55.148-7.658 28.581zM60.619 88.105l7.658-28.582.55.148-7.658 28.582z"/></g><path class="c" d="M74.37 91.46v44a2 2 0 0 0-.54-1c-1.18-1.43-11.53-14.17-12.84-16.13 0 0-.52 1 .92-1.3s8.52-14.44 9-22a22.77 22.77 0 0 0 .13-3.51z"/><g class="m"><path class="a" d="M90.89 113.47a23.28 23.28 0 1 0-23.28 23.28 23.29 23.29 0 0 0 23.28-23.28m-.57 0a22.69 22.69 0 1 1-22.69-22.73 22.7 22.7 0 0 1 22.74 22.69"/><path class="a" d="M90.3 113.4a22.69 22.69 0 1 0-22.69 22.69A22.7 22.7 0 0 0 90.3 113.4m-.57 0a22.1 22.1 0 1 1-22.1-22.1 22.11 22.11 0 0 1 22.1 22.1"/><path class="a" d="M89.78 113.4a22.1 22.1 0 1 0-22.1 22.1 22.11 22.11 0 0 0 22.1-22.1m-.64 0a21.51 21.51 0 1 1-21.51-21.48 21.52 21.52 0 0 1 21.51 21.51"/><path class="a" d="M89.12 113.47A21.51 21.51 0 1 0 67.61 135a21.52 21.52 0 0 0 21.51-21.51m-.56 0a20.92 20.92 0 1 1-20.93-20.98 20.93 20.93 0 0 1 20.92 20.92"/><path class="a" d="M88.53 113.47a20.92 20.92 0 1 0-20.92 20.92 20.93 20.93 0 0 0 20.92-20.92m-.57 0A20.33 20.33 0 1 1 67.63 93.1a20.34 20.34 0 0 1 20.33 20.33"/><path class="a" d="M87.94 113.47a20.33 20.33 0 1 0-20.33 20.33 20.34 20.34 0 0 0 20.33-20.33m-.57 0a19.74 19.74 0 1 1-19.74-19.78 19.75 19.75 0 0 1 19.74 19.74"/><path class="a" d="M87.42 113.4a19.74 19.74 0 1 0-19.74 19.75 19.75 19.75 0 0 0 19.74-19.75m-.64 0a19.15 19.15 0 1 1-19.15-19.12 19.16 19.16 0 0 1 19.15 19.16"/><path class="a" d="M86.76 113.4a19.15 19.15 0 1 0-19.15 19.16 19.16 19.16 0 0 0 19.15-19.16m-.57 0a18.57 18.57 0 1 1-18.56-18.53 18.57 18.57 0 0 1 18.57 18.57"/><path class="a" d="M86.17 113.47A18.56 18.56 0 1 0 67.61 132a18.57 18.57 0 0 0 18.56-18.53m-.56 0a18 18 0 1 1-18-18 18 18 0 0 1 18 18"/><path class="a" d="M85.58 113.47a18 18 0 1 0-18 18 18 18 0 0 0 18-18m-.57 0A17.39 17.39 0 1 1 67.63 96a17.39 17.39 0 0 1 17.39 17.39"/><path class="a" d="M85.06 113.4a17.39 17.39 0 1 0-17.39 17.39 17.39 17.39 0 0 0 17.39-17.39m-.64 0a16.8 16.8 0 1 1-16.8-16.8 16.8 16.8 0 0 1 16.8 16.8"/><path class="a" d="M84.48 113.4a16.8 16.8 0 1 0-16.8 16.8 16.8 16.8 0 0 0 16.8-16.8m-.64 0a16.21 16.21 0 1 1-16.21-16.18 16.21 16.21 0 0 1 16.21 16.21"/><path class="a" d="M83.82 113.47a16.21 16.21 0 1 0-16.21 16.21 16.21 16.21 0 0 0 16.21-16.21m-.57 0a15.62 15.62 0 1 1-15.62-15.66 15.62 15.62 0 0 1 15.62 15.62"/><path class="a" d="M83.23 113.47a15.62 15.62 0 1 0-15.62 15.62 15.63 15.63 0 0 0 15.62-15.62m-.57 0a15 15 0 1 1-15-15 15 15 0 0 1 15 15"/><path class="a" d="M82.64 113.47a15 15 0 1 0-15 15 15 15 0 0 0 15-15m-.57 0A14.44 14.44 0 1 1 67.63 99a14.45 14.45 0 0 1 14.44 14.43"/><path class="a" d="M82.12 113.4a14.44 14.44 0 1 0-14.44 14.44 14.45 14.45 0 0 0 14.44-14.44m-.64 0a13.85 13.85 0 1 1-13.85-13.82 13.85 13.85 0 0 1 13.85 13.85"/><path class="a" d="M81.46 113.4a13.85 13.85 0 1 0-13.85 13.85 13.86 13.86 0 0 0 13.85-13.85m-.57 0a13.26 13.26 0 1 1-13.26-13.26 13.27 13.27 0 0 1 13.26 13.26"/><path class="a" d="M80.87 113.47a13.26 13.26 0 1 0-13.26 13.26 13.27 13.27 0 0 0 13.26-13.26m-.57 0a12.67 12.67 0 1 1-12.67-12.67 12.68 12.68 0 0 1 12.67 12.67"/><path class="a" d="M80.28 113.47a12.67 12.67 0 1 0-12.67 12.67 12.67 12.67 0 0 0 12.67-12.67m-.57 0a12.08 12.08 0 1 1-12.08-12.08 12.09 12.09 0 0 1 12.08 12.08"/><path class="a" d="M79.76 113.4a12.08 12.08 0 1 0-12.08 12.08 12.09 12.09 0 0 0 12.08-12.08m-.64 0a11.49 11.49 0 1 1-11.49-11.49 11.5 11.5 0 0 1 11.49 11.49"/><path class="a" d="M79.17 113.4a11.49 11.49 0 1 0-11.49 11.49 11.5 11.5 0 0 0 11.49-11.49m-.63 0a10.9 10.9 0 1 1-10.9-10.9 10.91 10.91 0 0 1 10.9 10.9"/><path class="a" d="M78.51 113.47a10.9 10.9 0 1 0-10.9 10.9 10.91 10.91 0 0 0 10.9-10.9m-.57 0a10.31 10.31 0 1 1-10.31-10.32 10.32 10.32 0 0 1 10.31 10.32"/><path class="a" d="M77.92 113.47a10.31 10.31 0 1 0-10.31 10.32 10.32 10.32 0 0 0 10.31-10.32m-.57 0a9.72 9.72 0 1 1-9.72-9.73 9.73 9.73 0 0 1 9.74 9.69"/><path class="a" d="M77.37 113.4a9.72 9.72 0 1 0-9.72 9.72 9.73 9.73 0 0 0 9.72-9.72m-.57 0a9.13 9.13 0 1 1-9.13-9.14 9.14 9.14 0 0 1 9.13 9.14"/><path class="a" d="M76.81 113.4a9.13 9.13 0 1 0-9.13 9.14 9.14 9.14 0 0 0 9.13-9.14m-.64 0a8.55 8.55 0 1 1-8.54-8.55 8.55 8.55 0 0 1 8.54 8.55"/><path class="a" d="M76.16 113.4a8.55 8.55 0 1 0-8.55 8.55 8.55 8.55 0 0 0 8.55-8.55m-.57 0a8 8 0 1 1-8-8 8 8 0 0 1 8 8"/><path class="a" d="M75.57 113.47a8 8 0 1 0-8 8 8 8 0 0 0 8-8m-.57 0a7.37 7.37 0 1 1-7.37-7.37 7.37 7.37 0 0 1 7.37 7.37"/><path class="a" d="M74.98 113.47a7.37 7.37 0 1 0-7.37 7.37 7.37 7.37 0 0 0 7.37-7.37m-.57 0a6.78 6.78 0 1 1-6.78-6.78 6.78 6.78 0 0 1 6.74 6.74"/><path class="a" d="M74.46 113.4a6.78 6.78 0 1 0-6.78 6.78 6.78 6.78 0 0 0 6.78-6.78m-.64 0a6.19 6.19 0 1 1-6.19-6.19 6.19 6.19 0 0 1 6.19 6.19"/><path class="a" d="M73.87 113.4a6.19 6.19 0 1 0-6.19 6.19 6.19 6.19 0 0 0 6.19-6.19m-.63 0a5.6 5.6 0 1 1-5.6-5.6 5.6 5.6 0 0 1 5.6 5.6"/><path class="a" d="M73.21 113.47a5.6 5.6 0 1 0-5.6 5.6 5.6 5.6 0 0 0 5.6-5.6m-.57 0a5 5 0 1 1-5-5 5 5 0 0 1 5 5"/><path class="a" d="M72.62 113.47a5 5 0 1 0-5 5 5 5 0 0 0 5-5m-.57 0a4.42 4.42 0 1 1-4.42-4.47 4.42 4.42 0 0 1 4.42 4.42"/><path class="a" d="M72.03 113.4a4.42 4.42 0 1 0-4.42 4.42 4.42 4.42 0 0 0 4.42-4.42m-.57 0a3.83 3.83 0 1 1-3.83-3.83 3.83 3.83 0 0 1 3.83 3.83"/><path class="a" d="M71.51 113.4a3.83 3.83 0 1 0-3.83 3.83 3.83 3.83 0 0 0 3.83-3.83m-.63 0a3.24 3.24 0 1 1-3.24-3.24 3.24 3.24 0 0 1 3.24 3.24"/><path class="a" d="M70.85 113.47a3.24 3.24 0 1 0-3.24 3.24 3.24 3.24 0 0 0 3.24-3.24m-.57 0a2.65 2.65 0 1 1-2.65-2.65 2.66 2.66 0 0 1 2.65 2.65"/><path class="a" d="M70.26 113.47a2.65 2.65 0 1 0-2.65 2.65 2.65 2.65 0 0 0 2.65-2.65m-.57 0a2.06 2.06 0 1 1-2.06-2.06 2.06 2.06 0 0 1 2.06 2.06"/><path class="a" d="M69.67 113.47a2.06 2.06 0 1 0-2.06 2.06 2.06 2.06 0 0 0 2.06-2.06m-.57 0a1.47 1.47 0 1 1-1.47-1.47 1.47 1.47 0 0 1 1.47 1.47"/><path class="a" d="M69.15 113.4a1.47 1.47 0 1 0-1.47 1.47 1.47 1.47 0 0 0 1.47-1.47m-.64 0a.88.88 0 1 1-.88-.88.88.88 0 0 1 .88.88"/><path class="a" d="M68.56 113.4a.88.88 0 1 0-.88.89.88.88 0 0 0 .88-.89m-.64 0a.29.29 0 1 1-.29-.29.29.29 0 0 1 .29.29"/><path class="a" d="M67.9 113.47a.29.29 0 1 0-.29.29.29.29 0 0 0 .29-.29"/></g><path class="c" d="M68.19 91.46c-.79 14.43-9.7 24.06-15.59 26.4-5.7 2.26-17.69 4.81-24.9-9.76a27.9 27.9 0 0 0 2.67 3.12c1.83 2 13.5 8.58 22.41 1 3.79-3.21 9-7.8 10-20.81 0 0 5.51-.13 5.5 0z"/><g class="n"><path class="a" d="M53.192 126.368L70.407 92.58l.481.245-17.215 33.787zM69.89 92.32l-17.22 33.79.48.24 17.22-33.79-.48-.24zM52.147 125.834l17.216-33.787.48.245L52.63 126.08zM51.626 125.584l17.216-33.787.48.245-17.215 33.787zM68.32 91.52l-17.21 33.79.48.24L68.8 91.76l-.48-.24zM50.582 125.04l17.215-33.787.481.245-17.215 33.787zM50.064 124.775L67.28 90.988l.482.245-17.216 33.787zM49.547 124.516l17.216-33.787.48.245L50.03 124.76zM49.02 124.236L66.237 90.45l.481.246-17.215 33.787zM48.503 123.972l17.215-33.787.481.245-17.215 33.787zM47.972 123.721l17.215-33.787.481.246-17.215 33.787zM47.454 123.457L64.67 89.67l.482.245-17.216 33.787zM46.937 123.187L64.153 89.4l.48.246-17.214 33.787zM46.42 122.923l17.215-33.787.481.245-17.215 33.787zM45.893 122.653l17.215-33.787.482.246-17.216 33.787zM62.59 88.6l-17.22 33.79.48.24 17.22-33.79-.48-.24zM44.849 122.12l17.215-33.787.481.245-17.215 33.787zM44.322 121.85l17.215-33.787.482.245-17.216 33.787zM43.81 121.594l17.215-33.787.481.246-17.215 33.787zM43.283 121.325l17.215-33.787.482.245-17.216 33.787zM42.765 121.06l17.216-33.787.48.246-17.214 33.787zM42.239 120.791l17.215-33.787.481.245-17.215 33.787zM41.731 120.526L58.946 86.74l.481.245-17.215 33.787zM41.204 120.257L58.42 86.47l.48.245-17.214 33.787zM40.678 119.988l17.215-33.787.481.245-17.215 33.787zM40.16 119.723l17.215-33.787.481.245-17.215 33.787zM56.85 85.68l-17.21 33.79.48.24 17.21-33.79-.48-.24zM39.121 119.198l17.215-33.787.482.245-17.216 33.787zM38.594 118.939L55.81 85.152l.48.245-17.214 33.787zM38.077 118.674l17.215-33.787.481.245-17.215 33.787zM37.55 118.405l17.215-33.787.481.245-17.215 33.787zM37.023 118.136L54.24 84.349l.48.245-17.214 33.787zM36.516 117.861L53.73 84.074l.481.245-17.215 33.787zM35.984 117.61L53.2 83.825l.48.245-17.214 33.787zM35.467 117.346l17.215-33.787.481.245-17.215 33.787zM34.94 117.077L52.155 83.29l.482.245-17.216 33.787zM34.422 116.812l17.216-33.787.48.245-17.215 33.787zM33.906 116.543L51.12 82.756l.481.245-17.215 33.787zM33.388 116.278l17.215-33.787.481.245-17.215 33.787zM32.861 116.009l17.216-33.787.48.245-17.215 33.787zM32.335 115.74L49.55 81.953l.481.245-17.215 33.787zM31.812 115.484l17.216-33.787.48.245-17.214 33.787zM31.296 115.214L48.51 81.427l.481.246-17.215 33.787zM47.99 81.16l-17.22 33.79.48.24L48.47 81.4l-.48-.24zM30.251 114.68l17.216-33.786.48.245-17.215 33.787zM29.734 114.426l17.215-33.787.481.245-17.215 33.787zM29.207 114.147L46.422 80.36l.481.245-17.215 33.787zM28.7 113.882l17.215-33.787.48.245-17.215 33.787zM28.168 113.631l17.215-33.787.482.246-17.216 33.787zM27.641 113.362l17.216-33.787.48.245-17.214 33.787zM27.124 113.097l17.215-33.786.481.245-17.215 33.787zM26.597 112.818l17.215-33.787.481.245-17.215 33.787zM43.3 78.77l-17.22 33.79.48.25 17.22-33.8-.48-.24zM42.78 78.5l-17.22 33.79.48.25 17.22-33.79-.48-.25z"/></g><path class="c" d="M56.79 91.46c.66 9.23-4.65 15-7.08 17.81-4.32 4.94-15.72 2.47-17.16 1.82a48.93 48.93 0 0 1-4.81-3 29.46 29.46 0 0 1 2.63 3.13c1.66 2.21 13.5 8.58 22.41 1 3.79-3.21 9-7.8 10-20.81z"/><g class="o"><path class="a" d="M26.995 109.225L46.443 80.39l.481.324-19.449 28.834z"/><path class="a" d="M27.95 109.87L47.4 81.04l-.48-.32-19.45 28.83.48.32z"/><path class="a" d="M27.952 109.867L47.4 81.033l.48.324-19.448 28.834zM28.434 110.203L47.883 81.37l.472.32-19.449 28.833zM28.918 110.524L48.366 81.69l.481.325-19.449 28.834z"/><path class="a" d="M29.87 111.17l19.45-28.83-.48-.32-19.44 28.83.47.32zM29.978 111.236l19.47-28.859.482.325-19.47 28.86z"/><path class="a" d="M30.84 111.82l19.44-28.83-.47-.32-19.45 28.83.48.32zM31.32 112.14l19.44-28.83-.47-.32-19.45 28.83.48.32z"/><path class="a" d="M31.318 112.142l19.443-28.825.481.324L31.8 112.467zM31.8 112.469l19.45-28.834.48.324-19.449 28.834zM32.284 112.79l19.449-28.834.48.324-19.448 28.834zM32.766 113.126l19.449-28.833.48.324-19.448 28.834z"/><path class="a" d="M33.24 113.447l19.443-28.825.48.324-19.442 28.826zM33.732 113.774L53.18 84.94l.481.324-19.448 28.834z"/><path class="a" d="M34.68 114.42l19.45-28.84-.48-.32-19.44 28.83.47.33zM34.687 114.422l19.444-28.826.48.324-19.443 28.826zM35.171 114.743l19.443-28.826.481.324-19.443 28.826z"/><path class="a" d="M35.645 115.064l19.443-28.826.473.319-19.444 28.825zM36.127 115.39L55.57 86.565l.48.324-19.442 28.826z"/><path class="a" d="M36.616 115.703L56.06 86.877l.473.32-19.443 28.825zM37.098 116.04l19.443-28.826.481.324-19.443 28.826z"/><path class="a" d="M38.05 116.68L57.5 87.85l-.48-.32-19.45 28.83.48.32zM38.054 116.687l19.443-28.825.473.318-19.444 28.826zM38.538 117.008L57.98 88.183l.472.318-19.443 28.826zM39.011 117.34L58.46 88.504l.473.319-19.45 28.834zM39.493 117.666L58.936 88.84l.473.319-19.443 28.826zM39.977 117.987L59.42 89.16l.48.324-19.442 28.826zM40.459 118.313l19.443-28.825.48.324-19.442 28.826z"/><path class="a" d="M40.933 118.634L60.376 89.81l.472.318-19.443 28.826zM41.415 118.971l19.448-28.834.473.319-19.449 28.834zM41.898 119.282l19.443-28.826.473.32L42.371 119.6zM42.378 119.595L61.82 90.769l.472.319-19.443 28.825zM43.34 120.25l19.45-28.83-.48-.32-19.45 28.83.48.32zM43.82 120.58l19.45-28.83-.48-.32-19.45 28.83.48.32zM43.825 120.579l19.443-28.826.481.325-19.443 28.825z"/><path class="a" d="M44.78 121.23l19.45-28.84-.48-.31L44.3 120.9l.48.33zM45.26 121.55l19.45-28.83-.48-.32-19.44 28.83.47.32zM45.74 121.87l19.45-28.82-.48-.33-19.44 28.84.47.31zM45.747 121.884L65.195 93.05l.481.324-19.448 28.834z"/><path class="a" d="M46.23 122.205L65.674 93.38l.48.325-19.443 28.825z"/><path class="a" d="M46.704 122.526l19.449-28.834.472.319-19.448 28.834z"/></g><path class="c" d="M92.75 83.49H54.54c-4.86 0-5.41 8 .26 8h38.47c6.3 0 5.51-8 .53-8z"/><g class="p"><path class="a" d="M50.76 90.94h47v.56h-47zM50.76 90.36h47v.56h-47zM50.76 89.79h47v.56h-47zM50.76 89.22h47v.56h-47zM50.76 88.64h47v.56h-47zM50.76 88.07h47v.56h-47zM50.76 87.5h47v.56h-47zM50.76 86.92h47v.56h-47zM50.76 86.35h47v.56h-47zM50.76 85.78h47v.56h-47zM50.76 85.2h47v.56h-47zM50.76 84.63h47v.56h-47zM50.76 84.06h47v.56h-47zM50.76 83.48h47v.56h-47z"/></g></svg>