<?xml version="1.0" encoding="utf-8"?>
<!-- Generator: Adobe Illustrator 22.1.0, SVG Export Plug-In . SVG Version: 6.00 Build 0)  -->
<svg version="1.1" id="Layer_1" xmlns="http://www.w3.org/2000/svg" xmlns:xlink="http://www.w3.org/1999/xlink" x="0px" y="0px"
	 viewBox="0 0 85 85" style="enable-background:new 0 0 85 85;" xml:space="preserve">
<style type="text/css">
	.st0{fill:#FFFFFF;}
</style>
<g>
	<path class="st0" d="M83.3,38.4c-1-0.6-2.3-0.6-3.4,0l-14,8.2v-0.8c0-6.4-4.8-11.2-11.2-11.2H11.2C4.8,34.6,0,39.4,0,45.7v24.6
		c0,6.4,4.8,11.2,11.2,11.2h43.6c6.4,0,11.2-4.8,11.2-11.2v-1.1l14.1,7.5c1,0.6,2.3,0.5,3.3-0.1c1-0.6,1.6-1.7,1.6-2.9V41.3
		C85,40.1,84.4,39,83.3,38.4z"/>
	<path class="st0" d="M47.8,32.5c8,0,14.5-6.5,14.5-14.5S55.7,3.5,47.8,3.5S33.3,10,33.3,18S39.8,32.5,47.8,32.5z M47.8,14
		c2.2,0,4,1.8,4,4s-1.8,4-4,4s-4-1.8-4-4S45.6,14,47.8,14z"/>
	<path class="st0" d="M16,32.5c8,0,14.5-6.5,14.5-14.5S24,3.5,16,3.5S1.5,10,1.5,18S8,32.5,16,32.5z M16,14c2.2,0,4,1.8,4,4
		s-1.8,4-4,4c-2.2,0-4-1.8-4-4S13.8,14,16,14z"/>
</g>
</svg>
